<?xml version="1.0" encoding="utf-8"?>
<!-- Generator: Adobe Illustrator 26.3.1, SVG Export Plug-In . SVG Version: 6.00 Build 0)  -->
<svg version="1.1" id="Calque_1" xmlns="http://www.w3.org/2000/svg" xmlns:xlink="http://www.w3.org/1999/xlink" x="0px" y="0px"
	 viewBox="0 0 175.32 330.55" style="enable-background:new 0 0 175.32 330.55;" xml:space="preserve">
<style type="text/css">
	.st0{fill:#714E31;}
	.st1{fill:#F8AB18;}
</style>
<g>
	<polygon class="st0" points="60.82,266.63 63.17,273.73 70.64,273.69 64.61,278.12 66.96,285.2 60.89,280.84 54.86,285.27 
		57.14,278.14 51.08,273.79 58.55,273.75 	"/>
	<polygon class="st0" points="86.99,266.63 89.34,273.73 96.81,273.69 90.78,278.12 93.12,285.2 87.06,280.84 81.03,285.27 
		83.31,278.14 77.25,273.79 84.71,273.75 	"/>
	<polygon class="st0" points="113.16,266.63 115.5,273.73 122.98,273.69 116.95,278.12 119.3,285.2 113.23,280.84 107.2,285.27 
		109.48,278.14 103.42,273.79 110.88,273.75 	"/>
</g>
<g>
	<g>
		<path class="st0" d="M98,221.77c-14.15,0-23.9-2.95-30.5-9.22c-7.59,9.81-17.22,20.09-29.47,30.17
			c11.55,6.28,24.63,8.54,37.04,8.54c30.8,0,74.37-9.83,91.73-57.66l-7.54-3.27C147.15,211.29,123.23,221.77,98,221.77z"/>
		<path class="st0" d="M63.11,207.22c-6.38-9.95-8.35-25.26-8.35-46.72c0-58.32,25.88-141.53,66.18-141.53
			c20.97,0,22.6,18.02,22.6,23.26c0,8.19-6.23,24.57-14.42,26.86c6.22,7.21,13.43,8.52,18.67,8.52c16.71,0,22.93-12.78,22.93-30.14
			c0-31.78-26.54-43.9-57-43.9C26.58,3.58,3.32,96.29,3.32,167.71c0,36.74,11.47,58.29,27.33,70.26
			C40.3,231.3,51.55,221.5,63.11,207.22z"/>
		<path class="st1" d="M67.5,212.55c24.2-31.3,27.48-57.85,27.48-57.85c-10.16,22.12-21.14,39.25-31.87,52.52
			C64.38,209.21,65.85,210.98,67.5,212.55z"/>
		<path class="st1" d="M67.5,212.55c-1.65-1.57-3.12-3.34-4.4-5.33C51.55,221.5,40.3,231.3,30.66,237.98
			c2.37,1.79,4.84,3.36,7.38,4.74C50.28,232.64,59.92,222.36,67.5,212.55z"/>
	</g>
	<path class="st1" d="M25.68,214.66c-2.45,11.77,4.47,23.11,4.47,23.11s10.9-7.73,13.35-19.49c2.45-11.76-4.47-23.11-4.47-23.11
		S28.13,202.89,25.68,214.66"/>
	<path class="st1" d="M59.51,231.03c-11.87,1.88-20.03,12.38-20.03,12.38s11.09,7.44,22.96,5.57c11.87-1.88,20.02-12.38,20.02-12.38
		S71.37,229.15,59.51,231.03"/>
	<path class="st1" d="M46.22,197.27c-0.5,10.96,7.39,20.18,7.39,20.18s8.7-8.55,9.19-19.51c0.5-10.96-7.39-20.17-7.39-20.17
		S46.72,186.31,46.22,197.27"/>
	<path class="st1" d="M81.27,225.06c-10.41,3.47-21.42-1.61-21.42-1.61s5.86-10.69,16.26-14.16c10.41-3.47,21.43,1.61,21.43,1.61
		S91.68,221.59,81.27,225.06"/>
	<path class="st1" d="M97.58,201.68c-9.89,4.74-21.45,1.08-21.45,1.08s4.46-11.34,14.36-16.08c9.89-4.74,21.46-1.08,21.46-1.08
		S107.47,196.94,97.58,201.68"/>
	<path class="st1" d="M106.75,177.2c-8.22,5.23-18.81,3.23-18.81,3.23s2.74-10.48,10.96-15.71c8.22-5.23,18.81-3.23,18.81-3.23
		S114.97,171.98,106.75,177.2"/>
	<path class="st1" d="M61.19,178.48c-0.49,10.87,7.33,20,7.33,20s8.62-8.48,9.11-19.34c0.5-10.86-7.33-20.01-7.33-20.01
		S61.69,167.62,61.19,178.48"/>
	<path class="st1" d="M74.61,158.66c0.11,9.74,7.55,17.5,7.55,17.5s7.28-8.01,7.17-17.74c-0.11-9.73-7.56-17.52-7.56-17.52
		S74.51,148.92,74.61,158.66"/>
	<path class="st1" d="M91.45,141.89c-3.09,9.23,1.41,19.01,1.41,19.01s9.49-5.19,12.58-14.42c3.09-9.23-1.41-19.02-1.41-19.02
		S94.54,132.66,91.45,141.89"/>
</g>
<g>
	<path class="st0" d="M26.28,305.57c0-1.58,0.38-2.8,1.13-3.65c0.76-0.85,1.89-1.27,3.4-1.27c1.51,0,2.64,0.42,3.4,1.27
		c0.76,0.85,1.13,2.06,1.13,3.65v0.76h-2.91v-0.95c0-0.71-0.14-1.21-0.41-1.5s-0.65-0.43-1.13-0.43c-0.48,0-0.86,0.14-1.13,0.43
		c-0.27,0.29-0.41,0.79-0.41,1.5c0,0.67,0.15,1.26,0.45,1.78c0.3,0.51,0.67,1,1.12,1.45s0.93,0.91,1.44,1.37
		c0.51,0.46,0.99,0.96,1.44,1.49c0.45,0.54,0.82,1.16,1.12,1.85c0.3,0.69,0.45,1.5,0.45,2.43c0,1.58-0.39,2.8-1.16,3.65
		c-0.77,0.85-1.92,1.27-3.43,1.27c-1.51,0-2.65-0.42-3.42-1.27c-0.77-0.85-1.16-2.06-1.16-3.65v-1.34h2.91v1.54
		c0,0.71,0.14,1.2,0.43,1.48c0.29,0.28,0.67,0.42,1.16,0.42s0.87-0.14,1.16-0.42c0.29-0.28,0.43-0.77,0.43-1.48
		c0-0.67-0.15-1.26-0.45-1.78c-0.3-0.51-0.67-1-1.12-1.45c-0.45-0.46-0.93-0.91-1.44-1.37c-0.51-0.45-0.99-0.95-1.44-1.49
		s-0.82-1.16-1.12-1.85C26.43,307.31,26.28,306.5,26.28,305.57z"/>
	<path class="st0" d="M39.93,300.87H43v19.57h-3.08V300.87z"/>
	<path class="st0" d="M50.78,306.27v14.18h-2.77v-19.57h3.86l3.16,11.72v-11.72h2.74v19.57h-3.16L50.78,306.27z"/>
	<path class="st0" d="M71.69,313.14v2.6c0,1.58-0.39,2.8-1.16,3.65c-0.77,0.85-1.92,1.27-3.43,1.27s-2.65-0.42-3.43-1.27
		c-0.77-0.85-1.16-2.06-1.16-3.65v-10.18c0-1.58,0.39-2.8,1.16-3.65c0.77-0.85,1.92-1.27,3.43-1.27s2.65,0.42,3.43,1.27
		c0.77,0.85,1.16,2.06,1.16,3.65v1.9h-2.91v-2.1c0-0.71-0.14-1.21-0.43-1.5c-0.29-0.29-0.68-0.43-1.16-0.43s-0.87,0.14-1.16,0.43
		s-0.43,0.79-0.43,1.5v10.57c0,0.71,0.14,1.2,0.43,1.48s0.68,0.42,1.16,0.42s0.87-0.14,1.16-0.42c0.29-0.28,0.43-0.77,0.43-1.48
		v-2.8H71.69z"/>
	<path class="st0" d="M79.44,309.12h4.22v2.79h-4.22v5.73h5.31v2.8h-8.39v-19.57h8.39v2.8h-5.31V309.12z"/>
	<path class="st0" d="M98.48,303.33c0.6,0,1.09-0.07,1.47-0.2c0.38-0.13,0.69-0.31,0.94-0.53c0.24-0.22,0.44-0.48,0.59-0.78
		c0.15-0.3,0.28-0.62,0.39-0.95h2.07v19.57h-3.08v-14.93h-2.38V303.33z"/>
	<path class="st0" d="M119.67,315.74c0,1.58-0.41,2.8-1.23,3.65c-0.82,0.85-2.01,1.27-3.58,1.27s-2.76-0.42-3.58-1.27
		c-0.82-0.85-1.23-2.06-1.23-3.65v-1.54c0-0.95,0.15-1.78,0.45-2.48c0.3-0.7,0.78-1.23,1.45-1.61c-1.27-0.69-1.9-2-1.9-3.94v-0.62
		c0-1.58,0.41-2.8,1.23-3.65c0.82-0.85,2.01-1.27,3.58-1.27s2.76,0.42,3.58,1.27c0.82,0.85,1.23,2.06,1.23,3.65v0.62
		c0,1.92-0.63,3.23-1.9,3.94c0.67,0.37,1.15,0.91,1.45,1.61c0.3,0.7,0.45,1.52,0.45,2.48V315.74z M113.13,306.77
		c0,0.78,0.16,1.32,0.49,1.62c0.33,0.3,0.74,0.45,1.24,0.45c0.48,0,0.89-0.15,1.23-0.45s0.5-0.84,0.5-1.62v-1.09
		c0-0.88-0.17-1.47-0.5-1.78c-0.34-0.31-0.75-0.46-1.23-0.46s-0.89,0.15-1.23,0.46c-0.34,0.31-0.5,0.9-0.5,1.78V306.77z
		 M113.13,315.66c0,0.88,0.17,1.46,0.5,1.76s0.75,0.45,1.23,0.45s0.89-0.15,1.22-0.45c0.32-0.3,0.5-0.89,0.52-1.76v-1.82
		c0-0.78-0.15-1.34-0.46-1.69c-0.31-0.34-0.73-0.52-1.27-0.52s-0.96,0.17-1.27,0.52c-0.31,0.35-0.46,0.91-0.46,1.69V315.66z"/>
	<path class="st0" d="M130.25,305.68c0-0.88-0.14-1.47-0.43-1.78c-0.29-0.31-0.68-0.46-1.16-0.46c-0.48,0-0.87,0.14-1.16,0.43
		c-0.29,0.29-0.43,0.79-0.43,1.5v1.26h-2.91v-1.06c0-1.58,0.39-2.8,1.16-3.65c0.77-0.85,1.92-1.27,3.43-1.27s2.65,0.42,3.43,1.27
		c0.77,0.85,1.16,2.06,1.16,3.65v0.5c0,2.09-0.72,3.43-2.15,4.03c0.78,0.34,1.34,0.85,1.66,1.55c0.33,0.7,0.49,1.55,0.49,2.56v1.54
		c0,1.58-0.39,2.8-1.16,3.65c-0.77,0.85-1.92,1.27-3.43,1.27s-2.65-0.42-3.43-1.27c-0.77-0.85-1.16-2.06-1.16-3.65v-1.62h2.91v1.82
		c0,0.71,0.14,1.21,0.43,1.5c0.29,0.29,0.68,0.43,1.16,0.43c0.48,0,0.87-0.15,1.16-0.45s0.43-0.89,0.43-1.76v-1.54
		c0-0.91-0.16-1.55-0.48-1.93c-0.32-0.37-0.83-0.56-1.54-0.56h-1.03v-2.79h1.2c0.58,0,1.03-0.15,1.36-0.45
		c0.33-0.3,0.49-0.84,0.49-1.62V305.68z"/>
	<path class="st0" d="M137.46,314.09l5.59-13.23h3.36v13.23h1.45v2.8h-1.45v3.55h-3.08v-3.55h-5.87V314.09z M143.33,314.09v-7.24
		l-3.05,7.24H143.33z"/>
</g>
</svg>
