<?xml version="1.0" encoding="utf-8"?>
<!-- Generator: Adobe Illustrator 26.3.1, SVG Export Plug-In . SVG Version: 6.00 Build 0)  -->
<svg version="1.1" id="Calque_1" xmlns="http://www.w3.org/2000/svg" xmlns:xlink="http://www.w3.org/1999/xlink" x="0px" y="0px"
	 viewBox="0 0 291.73 159.14" style="enable-background:new 0 0 291.73 159.14;" xml:space="preserve">
<style type="text/css">
	.st0{fill:#714E31;}
	.st1{fill:#F8AB18;}
</style>
<g>
	<path class="st0" d="M23.95,110.29c80,23.13,164.54,23.13,244.53,0l-12.36-42.55c-71.91,20.78-147.9,20.78-219.81,0L23.95,110.29z
		 M146.21,128.79c-41.43,0-82.86-5.85-123.14-17.55l-0.55-0.16l13-44.76l0.55,0.16c72.05,20.93,148.22,20.93,220.28,0l0.55-0.16
		l13,44.76l-0.55,0.16C229.07,122.94,187.64,128.79,146.21,128.79"/>
	<path class="st1" d="M215.89,58.84c-1.38,6.6,2.51,12.97,2.51,12.97s6.11-4.34,7.49-10.94c1.38-6.6-2.51-12.97-2.51-12.97
		S217.27,52.24,215.89,58.84"/>
	<path class="st1" d="M234.87,68.03c-6.66,1.06-11.24,6.95-11.24,6.95s6.23,4.18,12.89,3.12c6.66-1.06,11.24-6.95,11.24-6.95
		S241.53,66.97,234.87,68.03"/>
	<path class="st1" d="M227.42,49.08c-0.28,6.15,4.14,11.32,4.14,11.32s4.88-4.8,5.16-10.95c0.28-6.15-4.15-11.32-4.15-11.32
		S227.7,42.93,227.42,49.08"/>
	<path class="st1" d="M247.09,64.68c-5.84,1.95-12.02-0.9-12.02-0.9s3.29-6,9.12-7.95c5.84-1.95,12.02,0.9,12.02,0.9
		S252.93,62.73,247.09,64.68"/>
	<path class="st1" d="M256.24,51.56c-5.55,2.66-12.04,0.61-12.04,0.61s2.5-6.37,8.06-9.02c5.55-2.66,12.04-0.61,12.04-0.61
		S261.79,48.9,256.24,51.56"/>
	<path class="st1" d="M261.39,37.82c-4.62,2.94-10.55,1.82-10.55,1.82s1.54-5.88,6.15-8.81c4.61-2.93,10.56-1.82,10.56-1.82
		S266,34.89,261.39,37.82"/>
	<path class="st1" d="M235.82,38.54c-0.28,6.1,4.11,11.23,4.11,11.23s4.84-4.76,5.11-10.85c0.28-6.1-4.11-11.23-4.11-11.23
		S236.1,32.44,235.82,38.54"/>
	<path class="st1" d="M243.35,27.42c0.06,5.47,4.24,9.82,4.24,9.82s4.08-4.49,4.02-9.95c-0.06-5.46-4.24-9.83-4.24-9.83
		S243.29,21.95,243.35,27.42"/>
	<path class="st1" d="M252.8,18c-1.73,5.18,0.79,10.67,0.79,10.67s5.33-2.91,7.06-8.09c1.73-5.18-0.79-10.67-0.79-10.67
		S254.53,12.82,252.8,18"/>
	<path class="st1" d="M222.75,74.65c28.87-23.71,32.04-49.46,32.04-49.46C239.32,58.87,220.44,72,210.19,76.91
		C214.38,76.22,218.57,75.48,222.75,74.65"/>
	<path class="st1" d="M76.53,59.58c1.38,6.6-2.51,12.97-2.51,12.97s-6.11-4.34-7.49-10.94c-1.38-6.6,2.51-12.97,2.51-12.97
		S75.16,52.97,76.53,59.58"/>
	<path class="st1" d="M57.55,68.76c6.66,1.06,11.24,6.95,11.24,6.95s-6.22,4.18-12.89,3.12c-6.66-1.06-11.24-6.95-11.24-6.95
		S50.89,67.7,57.55,68.76"/>
	<path class="st1" d="M65.01,49.81c0.28,6.15-4.15,11.32-4.15,11.32s-4.88-4.8-5.16-10.95c-0.28-6.15,4.15-11.32,4.15-11.32
		S64.73,43.67,65.01,49.81"/>
	<path class="st1" d="M45.34,65.41c5.84,1.95,12.02-0.9,12.02-0.9s-3.28-6-9.12-7.95c-5.84-1.95-12.02,0.9-12.02,0.9
		S39.5,63.46,45.34,65.41"/>
	<path class="st1" d="M36.18,52.29c5.55,2.66,12.04,0.61,12.04,0.61s-2.5-6.37-8.06-9.02c-5.55-2.66-12.04-0.61-12.04-0.61
		S30.63,49.63,36.18,52.29"/>
	<path class="st1" d="M31.8,38.55c4.61,2.94,10.56,1.82,10.56,1.82s-1.54-5.88-6.15-8.81c-4.62-2.93-10.56-1.82-10.56-1.82
		S27.19,35.62,31.8,38.55"/>
	<path class="st1" d="M56.6,39.27c0.28,6.1-4.11,11.23-4.11,11.23s-4.84-4.76-5.11-10.85c-0.28-6.1,4.11-11.23,4.11-11.23
		S56.32,33.17,56.6,39.27"/>
	<path class="st1" d="M49.07,28.15c-0.06,5.47-4.24,9.82-4.24,9.82s-4.08-4.49-4.02-9.95c0.06-5.46,4.24-9.83,4.24-9.83
		S49.13,22.68,49.07,28.15"/>
	<path class="st1" d="M39.62,18.74c1.73,5.18-0.79,10.67-0.79,10.67s-5.33-2.91-7.06-8.09c-1.73-5.18,0.79-10.67,0.79-10.67
		S37.89,13.55,39.62,18.74"/>
	<path class="st1" d="M68.65,74.54c3.89,0.78,7.8,1.49,11.71,2.15C69.8,71.13,52.21,57.65,37.64,25.92
		C37.64,25.92,40.73,51.06,68.65,74.54"/>
	<path class="st0" d="M27.17,125.73c10.19,0,20.33,2.71,30.28,5.36c16.9,4.51,34.38,9.18,51.48,0.21v-4.13
		c-29.06-2.46-57.95-7.82-85.86-15.93l-0.55-0.16l8.86-30.5c-9.59-0.67-17.67,0.85-25.33,4.78c4.63,4.75,9.4,10.59,14.56,17.85
		l0.22,0.31l-0.19,0.32c-5.05,8.5-9.73,17.19-14.27,26.53C13.29,126.98,20.24,125.73,27.17,125.73 M87.44,137.57
		c-10.19,0-20.33-2.71-30.28-5.36c-17-4.54-34.58-9.23-51.79-0.05l-1.55,0.83l0.76-1.59c4.74-9.83,9.6-18.94,14.88-27.83
		C14.21,96.22,9.38,90.35,4.69,85.61l-0.54-0.55l0.68-0.36c8.24-4.4,16.93-6.06,27.35-5.22l0.7,0.06l-8.93,30.75
		c27.84,8.05,56.64,13.36,85.61,15.78l0.53,0.05V132l-0.3,0.16C102.35,136.12,94.88,137.57,87.44,137.57"/>
	<path class="st0" d="M183.49,131.3c17.1,8.97,34.58,4.3,51.48-0.21c16.72-4.46,33.99-9.07,51.09-0.74
		c-4.55-9.34-9.22-18.03-14.27-26.53l-0.19-0.32l0.22-0.31c5.16-7.25,9.93-13.1,14.56-17.85c-7.65-3.93-15.74-5.46-25.33-4.78
		l8.86,30.5l-0.55,0.16c-27.92,8.11-56.81,13.47-85.87,15.93V131.3z M204.98,137.57c-7.44,0-14.91-1.44-22.34-5.41l-0.3-0.16v-5.88
		l0.53-0.05c28.97-2.42,57.77-7.73,85.61-15.78l-8.93-30.75l0.7-0.06c10.41-0.84,19.1,0.82,27.35,5.22l0.68,0.36l-0.54,0.55
		c-4.69,4.73-9.52,10.61-14.77,17.95c5.27,8.89,10.14,18,14.88,27.83l0.77,1.59l-1.55-0.83c-17.2-9.18-34.78-4.49-51.79,0.05
		C225.32,134.86,215.17,137.57,204.98,137.57"/>
	<path class="st0" d="M65.25,103.56c-2.97,4.11-7.41,3.87-10.36,3.03c-3.2-0.91-6.43-3.52-4.6-9.96c1.94-6.85,6.69-15.1,15.05-12.73
		c2.92,0.83,5.14,2.71,4.27,5.76c-0.47,1.66-1.42,2.72-3.02,2.26c-0.5-0.14-1.16-0.46-1.56-1.32c0.85,0,1.89-1.4,2.11-2.18
		c0.14-0.5,0.48-2.28-1.53-2.85c-3.86-1.1-8.61,6.18-10.2,11.77c-1.17,4.11-0.91,6.09,2.48,7.05c2.42,0.69,5,0.33,6.73-1.35
		L65.25,103.56z"/>
	<path class="st0" d="M74.27,94.32l-0.69,1.52c1.34-0.65,2.76-1.08,4.11-0.8c1.44,0.3,2.12,1.32,1.87,2.53
		c-0.24,1.12-1.36,2.32-2.92,1.98c-1.79-0.38-0.45-2.3-1.41-2.5c-0.96-0.2-1.54,0.04-2.42,0.56l-5.3,11.96l-4.6-0.97l6.76-15.26
		L74.27,94.32z"/>
	<path class="st0" d="M88.22,104c-0.93-0.15-1.24-0.9-1.12-1.67c0.15-0.93,0.86-1.84,1.78-2.03c0.08-1.08-0.18-1.75-1.08-1.9
		c-3.03-0.49-5.39,5.88-5.81,8.45c-0.32,1.93,0.5,2.6,1.76,2.8C85.73,109.98,87.33,107.07,88.22,104 M91.12,101.86
		c0.16,0.23,0.44,0.37,0.89,0.44c1.52,0.25,2.37-0.74,3.64-1.03l0.02,0.7c-1.2,1.1-3.05,1.89-5.01,2.1c-1.67,6.38-5.7,9-8.92,8.48
		c-3.45-0.56-4.7-2.25-4.07-6.09c1.29-7.93,5.88-10.69,10.32-9.97C91.05,96.98,91.44,99.49,91.12,101.86"/>
	<path class="st0" d="M108.49,99.45l-3.6,10.76c-0.11,0.35-0.21,0.7-0.25,0.99c-0.08,0.71,0.18,1.27,1.48,1.42
		c1.3,0.15,3.19-1.48,4.61-2.37l1.1,0.13c-1.66,1.32-5.82,5.22-8.35,4.93c-2.2-0.25-3.6-1.27-3.68-3.18
		c-1.69,1.25-3.59,2.35-4.98,2.19c-2.5-0.29-3.93-1.57-3.65-4c0.06-0.49,0.18-1.03,0.38-1.63l3.6-10.76l4.67,0.54l-3.6,10.76
		c-0.11,0.35-0.21,0.7-0.25,0.99c-0.08,0.71,0.18,1.27,1.48,1.42c0.68,0.08,1.55-0.35,2.44-0.9c0.07-0.32,0.18-0.67,0.32-1.05
		l3.6-10.76L108.49,99.45z"/>
	<path class="st0" d="M118.57,95.04c0,0-0.66,2.18-1.51,5.06l1.95,0.15l-0.36,1.28l-1.95-0.15c-3.04,10.11-3.04,10.44-3.05,10.6
		c-0.06,0.75,0.23,1.26,1.53,1.36c1.3,0.1,3.14-1.59,4.52-2.53l1.11,0.09c-1.61,1.38-5.63,5.42-8.17,5.23
		c-2.51-0.2-3.95-1.42-3.76-3.86c0.13-1.73,2.36-8.49,3.13-11.25l-1.07-0.08l0.36-1.28l1.07,0.08l1.33-4.42L118.57,95.04z"/>
	<path class="st0" d="M127.3,102.13c-1.83-0.09-3.51,3.52-4.35,6.55c3,0.12,5.25-2.35,5.4-4.66
		C128.39,103.33,128.28,102.18,127.3,102.13 M124.97,114.56c1.6,0.08,4.43-1.67,5.7-4.02l1.47,0.07c-2.03,3.27-5.33,6.4-9.54,6.18
		c-3.13-0.16-4.7-2.63-4.56-5.43c0.21-4.14,2.34-11.32,8.28-11.02c2.67,0.14,4.12,1.32,4,3.6c-0.2,3.98-4.59,6.04-7.71,6.28
		c-0.09,0.52-0.15,1.01-0.17,1.4C122.33,113.78,123.7,114.5,124.97,114.56"/>
	<path class="st0" d="M143.9,112.23c-0.1,0.36-0.18,0.72-0.18,1.04c-0.01,0.72,0.34,1.21,1.61,1.23c1.3,0.02,1.81-0.98,3.14-2
		l1.11,0.02c-1.53,1.48-4.07,4.96-6.61,4.92c-2.55-0.04-4.03-1.18-3.99-3.63c0.01-0.52,0.08-1.04,0.22-1.66l1.34-5.86
		c0.07-0.29,0.11-0.59,0.11-0.85c0.02-1.18-0.59-1.94-1.47-1.95c-0.78-0.01-1.37,0.21-2.07,0.65l-3,13.14l-4.7-0.08l3.74-16.26
		l4.7,0.08l-0.42,1.76c1.35-0.96,2.87-1.71,4.31-1.69c1.76,0.03,3.72,1.96,3.68,4.14c-0.01,0.26-0.01,0.52-0.08,0.78L143.9,112.23z"
		/>
	<path class="st0" d="M151.52,112.6c0.03,1.96,1.12,2.3,1.93,2.29c0.75-0.01,1.46-0.74,2.06-1.67c0.03-0.33,0.09-0.69,0.18-1.08
		l1.68-8.68c-0.53-0.45-1.15-0.57-1.61-0.56C153.32,102.93,151.45,108.16,151.52,112.6 M162.56,100.92l-2.16,11.14
		c-0.06,0.36-0.12,0.72-0.11,1.01c0.01,0.72,0.35,1.24,1.65,1.21c1.31-0.02,2.97-1.88,4.26-2.95l1.11-0.02
		c-1.48,1.53-5.09,5.93-7.64,5.97c-2.12,0.04-3.57-0.72-4.02-2.41c-0.96,1.35-2.4,2.72-4.4,2.75c-3.13,0.05-4.09-2.15-4.12-4.08
		c-0.1-5.61,1.81-12.38,8.34-12.48c0.78-0.01,1.6,0.3,2.2,0.78l0.18-0.85L162.56,100.92z"/>
	<path class="st0" d="M170.86,100.55l-0.29,1.65c1.13-0.97,2.41-1.74,3.78-1.8c1.47-0.07,2.39,0.74,2.44,1.98
		c0.05,1.14-0.73,2.58-2.33,2.66c-1.83,0.08-1.01-2.11-1.99-2.07c-0.98,0.04-1.49,0.43-2.2,1.14l-2.13,12.91l-4.7,0.21l2.72-16.47
		L170.86,100.55z"/>
	<path class="st0" d="M181.12,111.5c0.14,1.95,1.25,2.23,2.06,2.17c0.75-0.05,1.38-0.82,1.93-1.75c0.01-0.36,0.04-0.72,0.11-1.12
		l1.22-8.8c-0.55-0.39-1.18-0.47-1.64-0.44C182.37,101.75,180.79,107.07,181.12,111.5 M189.88,110.46c-0.07,0.4-0.11,0.76-0.08,1.12
		c0.05,0.68,0.35,1.18,1.26,1.12c0.23-0.02,0.59-0.04,0.84-0.16c-0.71,2.87-2.06,3.16-3.17,3.24c-1.89,0.14-2.97-0.76-3.4-2.2
		c-0.88,1.41-2.25,2.82-4.2,2.96c-3.13,0.23-4.2-1.92-4.34-3.84c-0.41-5.6,1.11-12.46,7.63-12.94c0.78-0.06,1.62,0.24,2.24,0.65
		l0.94-6.81l4.74-1.01L189.88,110.46z"/>
	<path class="st0" d="M196.37,110c1.43-0.14,2.72,0.91,2.86,2.34c0.14,1.43-0.91,2.68-2.34,2.83c-1.43,0.14-2.68-0.88-2.83-2.31
		C193.92,111.43,194.94,110.15,196.37,110"/>
	<path class="st0" d="M210.08,99.41c-0.1-0.78-0.62-1.04-1.34-0.95c-2.72,0.34-3.81,5.84-3.37,9.34c0.24,1.91,0.82,3.42,2.8,3.17
		c2.3-0.29,3.98-1.88,5.26-3.75l1.1-0.14c-1.34,1.95-2.58,6.21-8.31,6.93c-2.69,0.34-4.63-0.93-5.1-4.76
		c-0.59-4.73,0.67-11.24,6.95-12.03c1.75-0.22,3.62,0.01,3.85,1.79c0.04,0.36,0.05,0.65-0.03,1.09c-0.17-0.08-0.45-0.14-0.84-0.09
		c-0.29,0.04-0.61,0.14-1.01,0.32C210.08,99.97,210.11,99.67,210.08,99.41"/>
	<path class="st0" d="M222.56,102.31c-0.93,0.15-1.46-0.46-1.58-1.24c-0.15-0.93,0.24-2.02,1.06-2.48c-0.27-1.05-0.72-1.6-1.62-1.46
		c-3.03,0.48-3.27,7.27-2.86,9.85c0.31,1.93,1.29,2.31,2.55,2.1C222.07,108.77,222.67,105.5,222.56,102.31 M224.63,99.37
		c0.22,0.16,0.53,0.21,0.98,0.14c1.51-0.24,2.02-1.45,3.13-2.12l0.24,0.66c-0.8,1.42-2.3,2.75-4.09,3.56
		c0.42,6.58-2.58,10.33-5.81,10.85c-3.45,0.55-5.16-0.66-5.78-4.5c-1.27-7.93,2.22-11.99,6.67-12.7
		C223.04,94.76,224.19,97.02,224.63,99.37"/>
	<path class="st0" d="M247.64,106.65c-2.07,0.46-3.49-0.36-4.03-2.75c-0.11-0.51-0.16-1.03-0.17-1.67l-0.07-6.01
		c0-0.3-0.03-0.6-0.09-0.85c-0.26-1.15-1.02-1.74-1.89-1.55c-0.7,0.16-1.17,0.46-1.66,0.94c0.18,0.36,0.33,0.73,0.42,1.11
		c0.05,0.22,0.07,0.45,0.09,0.68l0.14,11.71l-4.62,1.03l-0.13-11.35c0-0.3-0.03-0.6-0.09-0.85c-0.26-1.15-1.03-1.74-1.89-1.55
		c-0.76,0.17-1.26,0.51-1.79,1.1l0.14,13.49l-4.59,1.02l-0.18-16.69l4.59-1.03l0.03,1.77c1.07-1.21,2.36-2.3,3.73-2.61
		c1.18-0.26,2.61,0.29,3.58,1.34c1.19-1.4,2.6-2.72,4.17-3.07c1.75-0.39,4.08,1.03,4.56,3.2c0.06,0.26,0.07,0.49,0.1,0.75
		c0.08,1.09-0.04,7,0.12,7.7c0.12,0.54,0.48,0.93,1.4,0.72c0.22-0.05,0.57-0.13,0.81-0.28C250.02,105.91,248.72,106.4,247.64,106.65
		"/>
	<path class="st0" d="M205.86,61.61c-5.42-4.57-13.14-8.44-22.42-11.26c-0.8-0.17-1.27-0.24-1.27-0.24s3.67,6.82,5.42,11.71
		c-2.68-3.06-7.59-11.02-16.25-14.37c-3.31-0.6-6.75-1.09-10.29-1.44c-0.3,0.02-0.59,0.04-0.89,0.08
		c3.84,5.07,6.12,12.92,6.12,14.94c-6.79-9.65-14.4-14.59-20.33-15.66c-3.46,0.04-6.86,0.2-10.18,0.47
		c-0.78,0.13-0.94,0.25-0.94,0.25s7.52,8.21,10.66,14.95c-7.34-7.25-16.33-13.33-18.26-14.21c-5.12,0.77-9.97,1.82-14.48,3.11
		c0.01,0.01,6.53,5.07,8.62,10.14c-8.72-5.75-12.54-8.45-16.2-7.6c-5.75,2.22-10.7,4.88-14.65,7.88c-2.42,1.92-4.54,4.08-5.85,6.36
		c-4.19,7.34,4.19,9.26,7.51,9.26h109.05C206.46,75.96,212.81,70.32,205.86,61.61"/>
	<path class="st0" d="M135.81,4.13c0,0-5.12,7.66-1.99,16.35c3.13,8.69,3.63,14.09,1.99,18.79c4.13-5.55,2.83-15.36,0.91-21.12
		C134.81,12.38,135.81,4.13,135.81,4.13"/>
	<path class="st0" d="M147.33,4.13c0,0-5.12,7.66-1.99,16.35c3.13,8.69,3.63,14.09,1.99,18.79c4.13-5.55,2.83-15.36,0.91-21.12
		C146.34,12.38,147.33,4.13,147.33,4.13"/>
	<path class="st0" d="M156.9,4.13c0,0-5.12,7.66-1.99,16.35c3.13,8.69,3.63,14.09,1.99,18.79c4.12-5.55,2.83-15.36,0.91-21.12
		C155.9,12.38,156.9,4.13,156.9,4.13"/>
	<g>
		<polygon class="st0" points="81.85,145.36 82.9,148.51 86.22,148.5 83.54,150.46 84.58,153.61 81.89,151.67 79.21,153.64 
			80.22,150.48 77.52,148.54 80.84,148.52 		"/>
		<polygon class="st0" points="93.49,145.36 94.53,148.51 97.85,148.5 95.17,150.46 96.21,153.61 93.52,151.67 90.84,153.64 
			91.85,150.48 89.15,148.54 92.47,148.52 		"/>
		<polygon class="st0" points="105.12,145.36 106.16,148.51 109.48,148.5 106.8,150.46 107.84,153.61 105.15,151.67 102.47,153.64 
			103.48,150.48 100.79,148.54 104.11,148.52 		"/>
	</g>
	<g>
		<polygon class="st0" points="188.25,145.36 189.29,148.51 192.61,148.5 189.93,150.46 190.97,153.61 188.28,151.67 185.6,153.64 
			186.61,150.48 183.92,148.54 187.24,148.52 		"/>
		<polygon class="st0" points="199.88,145.36 200.92,148.51 204.24,148.5 201.56,150.46 202.61,153.61 199.91,151.67 197.23,153.64 
			198.25,150.48 195.55,148.54 198.87,148.52 		"/>
		<polygon class="st0" points="211.51,145.36 212.56,148.51 215.88,148.5 213.19,150.46 214.24,153.61 211.54,151.67 208.86,153.64 
			209.88,150.48 207.18,148.54 210.5,148.52 		"/>
	</g>
	<g>
		<path class="st0" d="M117.02,146.86c0-0.8,0.19-1.42,0.57-1.85c0.38-0.43,0.96-0.64,1.72-0.64c0.77,0,1.34,0.21,1.72,0.64
			c0.38,0.43,0.57,1.05,0.57,1.85v0.38h-1.47v-0.48c0-0.36-0.07-0.61-0.21-0.76c-0.14-0.15-0.33-0.22-0.57-0.22
			c-0.25,0-0.44,0.07-0.57,0.22c-0.14,0.15-0.21,0.4-0.21,0.76c0,0.34,0.07,0.64,0.23,0.9c0.15,0.26,0.34,0.51,0.57,0.74
			c0.23,0.23,0.47,0.46,0.73,0.69c0.26,0.23,0.5,0.48,0.73,0.76c0.23,0.28,0.42,0.59,0.57,0.94c0.15,0.35,0.23,0.76,0.23,1.23
			c0,0.8-0.2,1.42-0.59,1.85s-0.97,0.64-1.74,0.64c-0.76,0-1.34-0.21-1.74-0.64c-0.39-0.43-0.59-1.05-0.59-1.85v-0.68h1.47v0.78
			c0,0.36,0.07,0.61,0.22,0.75c0.15,0.14,0.34,0.21,0.59,0.21c0.25,0,0.44-0.07,0.59-0.21c0.15-0.14,0.22-0.39,0.22-0.75
			c0-0.34-0.08-0.64-0.23-0.9c-0.15-0.26-0.34-0.5-0.57-0.74c-0.23-0.23-0.47-0.46-0.73-0.69c-0.26-0.23-0.5-0.48-0.73-0.76
			s-0.42-0.59-0.57-0.94C117.1,147.74,117.02,147.33,117.02,146.86z"/>
		<path class="st0" d="M123.93,144.48h1.56v9.92h-1.56V144.48z"/>
		<path class="st0" d="M129.43,147.21v7.18h-1.4v-9.92h1.96l1.6,5.94v-5.94h1.39v9.92h-1.6L129.43,147.21z"/>
		<path class="st0" d="M140.03,150.7v1.32c0,0.8-0.2,1.42-0.59,1.85c-0.39,0.43-0.97,0.64-1.74,0.64s-1.34-0.21-1.74-0.64
			c-0.39-0.43-0.59-1.05-0.59-1.85v-5.16c0-0.8,0.2-1.42,0.59-1.85c0.39-0.43,0.97-0.64,1.74-0.64s1.34,0.21,1.74,0.64
			c0.39,0.43,0.59,1.05,0.59,1.85v0.96h-1.47v-1.06c0-0.36-0.07-0.61-0.22-0.76c-0.15-0.15-0.34-0.22-0.59-0.22
			c-0.25,0-0.44,0.07-0.59,0.22c-0.15,0.15-0.22,0.4-0.22,0.76v5.36c0,0.36,0.07,0.61,0.22,0.75c0.15,0.14,0.34,0.21,0.59,0.21
			c0.25,0,0.44-0.07,0.59-0.21c0.15-0.14,0.22-0.39,0.22-0.75v-1.42H140.03z"/>
		<path class="st0" d="M143.96,148.66h2.14v1.42h-2.14v2.91h2.69v1.42h-4.25v-9.92h4.25v1.42h-2.69V148.66z"/>
		<path class="st0" d="M153.61,145.72c0.3,0,0.55-0.03,0.74-0.1c0.19-0.07,0.35-0.16,0.47-0.27s0.22-0.25,0.3-0.4
			c0.08-0.15,0.14-0.31,0.2-0.48h1.05v9.92h-1.56v-7.57h-1.2V145.72z"/>
		<path class="st0" d="M164.35,152.01c0,0.8-0.21,1.42-0.62,1.85c-0.42,0.43-1.02,0.64-1.81,0.64s-1.4-0.21-1.81-0.64
			s-0.62-1.05-0.62-1.85v-0.78c0-0.48,0.08-0.9,0.23-1.25s0.4-0.62,0.74-0.81c-0.64-0.35-0.96-1.02-0.96-2v-0.31
			c0-0.8,0.21-1.42,0.62-1.85c0.42-0.43,1.02-0.64,1.81-0.64s1.4,0.21,1.81,0.64c0.41,0.43,0.62,1.05,0.62,1.85v0.31
			c0,0.97-0.32,1.64-0.96,2c0.34,0.19,0.58,0.46,0.74,0.81s0.23,0.77,0.23,1.25V152.01z M161.03,147.47c0,0.4,0.08,0.67,0.25,0.82
			c0.17,0.15,0.38,0.23,0.63,0.23c0.25,0,0.45-0.08,0.62-0.23c0.17-0.15,0.26-0.43,0.26-0.82v-0.55c0-0.44-0.09-0.74-0.26-0.9
			c-0.17-0.16-0.38-0.23-0.62-0.23s-0.45,0.08-0.62,0.23c-0.17,0.16-0.26,0.46-0.26,0.9V147.47z M161.03,151.97
			c0,0.44,0.09,0.74,0.26,0.89c0.17,0.15,0.38,0.23,0.62,0.23s0.45-0.08,0.62-0.23c0.16-0.15,0.25-0.45,0.26-0.89v-0.92
			c0-0.4-0.08-0.68-0.23-0.86c-0.16-0.17-0.37-0.26-0.64-0.26s-0.49,0.09-0.64,0.26c-0.16,0.18-0.23,0.46-0.23,0.86V151.97z"/>
		<path class="st0" d="M169.71,146.91c0-0.44-0.07-0.74-0.22-0.9c-0.15-0.16-0.34-0.23-0.59-0.23c-0.25,0-0.44,0.07-0.59,0.22
			c-0.15,0.15-0.22,0.4-0.22,0.76v0.64h-1.47v-0.54c0-0.8,0.2-1.42,0.59-1.85c0.39-0.43,0.97-0.64,1.74-0.64
			c0.77,0,1.34,0.21,1.74,0.64c0.39,0.43,0.59,1.05,0.59,1.85v0.26c0,1.06-0.36,1.74-1.09,2.04c0.4,0.17,0.68,0.43,0.84,0.79
			c0.17,0.35,0.25,0.79,0.25,1.3v0.78c0,0.8-0.2,1.42-0.59,1.85c-0.39,0.43-0.97,0.64-1.74,0.64c-0.77,0-1.34-0.21-1.74-0.64
			s-0.59-1.05-0.59-1.85v-0.82h1.47v0.92c0,0.36,0.07,0.61,0.22,0.76s0.34,0.22,0.59,0.22c0.25,0,0.44-0.08,0.59-0.23
			c0.15-0.15,0.22-0.45,0.22-0.89v-0.78c0-0.46-0.08-0.79-0.24-0.98c-0.16-0.19-0.42-0.28-0.78-0.28h-0.52v-1.42h0.61
			c0.29,0,0.52-0.08,0.69-0.23c0.17-0.15,0.25-0.43,0.25-0.82V146.91z"/>
		<path class="st0" d="M173.36,151.18l2.83-6.7h1.7v6.7h0.74v1.42h-0.74v1.8h-1.56v-1.8h-2.98V151.18z M176.34,151.18v-3.67
			l-1.54,3.67H176.34z"/>
	</g>
</g>
</svg>
