<svg xmlns="http://www.w3.org/2000/svg" xml:space="preserve" version="1.1">

 <g>
  <title>Layer 1</title>
  <g stroke="null" id="svg_16" >
   <path stroke="null" id="svg_17" fill="#714E31" d="m161.48,189.01c-17.36,47.83 -60.94,57.66 -91.73,57.66c-33.42,0 -71.75,-16.37 -71.75,-83.54c0,-71.42 23.26,-164.13 110.41,-164.13c30.47,0 57,12.12 57,43.9c0,17.36 -6.23,30.14 -22.93,30.14c-5.24,0 -12.45,-1.31 -18.67,-8.52c8.19,-2.29 14.42,-18.67 14.42,-26.86c0,-5.24 -1.64,-23.26 -22.6,-23.26c-40.3,0 -66.18,83.21 -66.18,141.53c0,42.92 7.87,61.26 43.25,61.26c25.23,0 49.14,-10.48 61.26,-31.45l7.52,3.27z" class="st0"/>
   <path stroke="null" id="svg_18" fill="#F8AB18" d="m21.36,208.3c-2.45,11.77 4.47,23.11 4.47,23.11s10.9,-7.73 13.35,-19.49c2.45,-11.76 -4.47,-23.11 -4.47,-23.11s-10.9,7.72 -13.35,19.49" class="st1"/>
   <path stroke="null" id="svg_19" fill="#F8AB18" d="m55.18,224.66c-11.87,1.88 -20.03,12.38 -20.03,12.38s11.09,7.44 22.96,5.57c11.87,-1.88 20.02,-12.38 20.02,-12.38s-11.08,-7.45 -22.95,-5.57" class="st1"/>
   <path stroke="null" id="svg_20" fill="#F8AB18" d="m41.9,190.9c-0.5,10.96 7.39,20.18 7.39,20.18s8.7,-8.55 9.19,-19.51c0.5,-10.96 -7.39,-20.17 -7.39,-20.17s-8.69,8.55 -9.19,19.5" class="st1"/>
   <path stroke="null" id="svg_21" fill="#F8AB18" d="m76.95,218.7c-10.41,3.47 -21.42,-1.61 -21.42,-1.61s5.86,-10.69 16.26,-14.16c10.41,-3.47 21.43,1.61 21.43,1.61s-5.87,10.69 -16.27,14.16" class="st1"/>
   <path stroke="null" id="svg_22" fill="#F8AB18" d="m93.26,195.32c-9.89,4.74 -21.45,1.08 -21.45,1.08s4.46,-11.34 14.36,-16.08c9.89,-4.74 21.46,-1.08 21.46,-1.08s-4.48,11.34 -14.37,16.08" class="st1"/>
   <path stroke="null" id="svg_23" fill="#F8AB18" d="m102.43,170.84c-8.22,5.23 -18.81,3.23 -18.81,3.23s2.74,-10.48 10.96,-15.71c8.22,-5.23 18.81,-3.23 18.81,-3.23s-2.74,10.48 -10.96,15.71" class="st1"/>
   <path stroke="null" id="svg_24" fill="#F8AB18" d="m56.87,172.12c-0.49,10.87 7.33,20 7.33,20s8.62,-8.48 9.11,-19.34c0.5,-10.86 -7.33,-20.01 -7.33,-20.01s-8.61,8.48 -9.11,19.35" class="st1"/>
   <path stroke="null" id="svg_25" fill="#F8AB18" d="m70.29,152.3c0.11,9.74 7.55,17.5 7.55,17.5s7.28,-8.01 7.17,-17.74c-0.11,-9.73 -7.56,-17.52 -7.56,-17.52s-7.26,8.02 -7.16,17.76" class="st1"/>
   <path stroke="null" id="svg_26" fill="#F8AB18" d="m87.13,135.52c-3.09,9.23 1.41,19.01 1.41,19.01s9.49,-5.19 12.58,-14.42c3.09,-9.23 -1.41,-19.02 -1.41,-19.02s-9.5,5.2 -12.58,14.43" class="st1"/>
   <path stroke="null" id="svg_27" fill="#F8AB18" d="m33.57,236.47c51.44,-42.26 57.09,-88.13 57.09,-88.13c-27.56,60.02 -61.2,83.41 -79.46,92.16c7.47,-1.23 14.93,-2.56 22.37,-4.03" class="st1"/>
  </g>
 </g>
</svg>