<?xml version="1.0" encoding="utf-8"?>
<!-- Generator: Adobe Illustrator 26.3.1, SVG Export Plug-In . SVG Version: 6.00 Build 0)  -->
<svg version="1.1" id="Calque_1" xmlns="http://www.w3.org/2000/svg" xmlns:xlink="http://www.w3.org/1999/xlink" x="0px" y="0px"
	 viewBox="0 0 167.41 349.31" style="enable-background:new 0 0 167.41 349.31;" xml:space="preserve">
<style type="text/css">
	.st0{fill:#714E31;}
	.st1{fill:#F8AB18;}
</style>
<g>
	<path class="st0" d="M17.56,318.38c0-1.59,0.38-2.81,1.14-3.66c0.76-0.85,1.89-1.28,3.41-1.28c1.52,0,2.65,0.43,3.41,1.28
		c0.76,0.85,1.14,2.08,1.14,3.66v0.76h-2.92v-0.96c0-0.71-0.13-1.21-0.41-1.5c-0.27-0.29-0.65-0.44-1.14-0.44
		c-0.49,0-0.86,0.14-1.14,0.44c-0.27,0.29-0.41,0.79-0.41,1.5c0,0.67,0.15,1.27,0.45,1.78c0.3,0.51,0.67,1,1.12,1.46
		c0.45,0.46,0.93,0.92,1.45,1.38c0.51,0.46,1,0.96,1.45,1.5c0.45,0.54,0.83,1.16,1.12,1.85c0.3,0.69,0.45,1.51,0.45,2.44
		c0,1.59-0.39,2.81-1.16,3.66c-0.78,0.85-1.92,1.28-3.44,1.28c-1.52,0-2.66-0.42-3.44-1.28c-0.78-0.85-1.17-2.07-1.17-3.66v-1.35
		h2.92v1.54c0,0.71,0.14,1.21,0.43,1.49c0.29,0.28,0.68,0.42,1.17,0.42c0.49,0,0.87-0.14,1.16-0.42c0.29-0.28,0.43-0.77,0.43-1.49
		c0-0.67-0.15-1.27-0.45-1.78c-0.3-0.51-0.67-1-1.12-1.46c-0.45-0.46-0.93-0.92-1.45-1.37c-0.52-0.46-1-0.96-1.45-1.5
		c-0.45-0.54-0.82-1.16-1.12-1.85C17.71,320.13,17.56,319.32,17.56,318.38"/>
</g>
<rect x="31.26" y="313.67" class="st0" width="3.09" height="19.66"/>
<polygon class="st0" points="42.16,319.09 42.16,333.32 39.38,333.32 39.38,313.67 43.26,313.67 46.43,325.43 46.43,313.67 
	49.18,313.67 49.18,333.32 46.01,333.32 "/>
<g>
	<path class="st0" d="M63.16,325.99v2.61c0,1.59-0.39,2.81-1.16,3.66c-0.78,0.85-1.92,1.28-3.44,1.28s-2.66-0.42-3.44-1.28
		c-0.78-0.85-1.17-2.07-1.17-3.66v-10.22c0-1.59,0.39-2.81,1.17-3.66c0.78-0.85,1.92-1.28,3.44-1.28s2.66,0.43,3.44,1.28
		c0.78,0.85,1.16,2.08,1.16,3.66v1.91h-2.92v-2.11c0-0.71-0.14-1.21-0.43-1.5c-0.29-0.29-0.68-0.44-1.17-0.44
		c-0.49,0-0.87,0.14-1.16,0.44c-0.29,0.29-0.44,0.79-0.44,1.5v10.62c0,0.71,0.15,1.21,0.44,1.49c0.29,0.28,0.68,0.42,1.16,0.42
		c0.49,0,0.88-0.14,1.17-0.42c0.29-0.28,0.43-0.78,0.43-1.49v-2.81H63.16z"/>
</g>
<polygon class="st0" points="70.94,321.95 75.18,321.95 75.18,324.76 70.94,324.76 70.94,330.52 76.28,330.52 76.28,333.32 
	67.85,333.32 67.85,313.67 76.28,313.67 76.28,316.47 70.94,316.47 "/>
<g>
	<path class="st0" d="M90.07,316.14c0.6,0,1.09-0.07,1.48-0.2c0.38-0.13,0.7-0.31,0.94-0.53c0.24-0.23,0.44-0.49,0.59-0.79
		c0.15-0.3,0.28-0.62,0.39-0.96h2.08v19.66h-3.09v-15h-2.39V316.14z"/>
	<path class="st0" d="M106.47,323.66c0.49,0,0.88-0.14,1.17-0.43c0.29-0.29,0.43-0.79,0.43-1.5v-3.54c0-0.71-0.14-1.21-0.43-1.49
		c-0.29-0.28-0.68-0.42-1.17-0.42c-0.49,0-0.87,0.14-1.16,0.42c-0.29,0.28-0.43,0.77-0.43,1.49v3.54c0,0.71,0.14,1.21,0.43,1.5
		C105.59,323.52,105.98,323.66,106.47,323.66 M111.16,328.44c0,1.67-0.39,2.94-1.15,3.81c-0.77,0.87-1.96,1.31-3.57,1.31
		c-1.52,0-2.66-0.42-3.44-1.28c-0.78-0.85-1.16-2.07-1.16-3.66v-0.5h2.92v0.7c0,0.71,0.14,1.21,0.43,1.5
		c0.29,0.29,0.68,0.44,1.17,0.44c0.54,0,0.96-0.17,1.26-0.5c0.3-0.34,0.45-0.98,0.45-1.91v-3.59c-0.54,1.16-1.5,1.74-2.86,1.74
		c-1.14,0-2-0.38-2.57-1.15c-0.57-0.77-0.86-1.88-0.86-3.34v-3.59c0-1.59,0.4-2.81,1.21-3.66c0.8-0.85,1.97-1.28,3.48-1.28
		s2.68,0.43,3.48,1.28c0.81,0.85,1.21,2.07,1.21,3.66V328.44z"/>
	<path class="st0" d="M121.97,318.5c0-0.88-0.14-1.48-0.44-1.78c-0.29-0.31-0.68-0.46-1.16-0.46c-0.49,0-0.88,0.14-1.16,0.43
		c-0.29,0.29-0.44,0.79-0.44,1.5v1.26h-2.92v-1.07c0-1.59,0.39-2.81,1.16-3.66c0.78-0.85,1.92-1.28,3.44-1.28
		c1.52,0,2.66,0.43,3.44,1.28c0.78,0.85,1.16,2.07,1.16,3.66v0.51c0,2.1-0.72,3.45-2.16,4.04c0.79,0.34,1.34,0.86,1.67,1.56
		c0.33,0.7,0.49,1.56,0.49,2.57v1.54c0,1.59-0.39,2.81-1.16,3.66c-0.78,0.85-1.92,1.28-3.44,1.28c-1.52,0-2.66-0.42-3.44-1.28
		c-0.77-0.85-1.16-2.07-1.16-3.66v-1.63h2.92v1.82c0,0.71,0.14,1.21,0.44,1.5c0.29,0.29,0.68,0.43,1.16,0.43
		c0.49,0,0.87-0.15,1.16-0.45c0.29-0.3,0.44-0.89,0.44-1.77v-1.54c0-0.92-0.16-1.57-0.48-1.94c-0.32-0.37-0.84-0.56-1.54-0.56h-1.04
		v-2.81h1.21c0.58,0,1.03-0.15,1.36-0.45c0.33-0.3,0.49-0.84,0.49-1.63V318.5z"/>
</g>
<path class="st0" d="M135.11,326.95v-7.27l-3.06,7.27H135.11z M129.21,326.95l5.62-13.28h3.37v13.28h1.46v2.81h-1.46v3.57h-3.09
	v-3.57h-5.9V326.95z"/>
<polygon class="st0" points="53.58,274.29 55.93,281.39 63.4,281.35 57.37,285.77 59.72,292.86 53.65,288.5 47.62,292.92 
	49.9,285.8 43.84,281.44 51.31,281.4 "/>
<polygon class="st0" points="79.75,274.29 82.1,281.39 89.57,281.35 83.54,285.77 85.88,292.86 79.82,288.5 73.79,292.92 
	76.07,285.8 70.01,281.44 77.47,281.4 "/>
<polygon class="st0" points="105.92,274.29 108.26,281.39 115.74,281.35 109.7,285.77 112.05,292.86 105.99,288.5 99.96,292.92 
	102.24,285.8 96.18,281.44 103.64,281.4 "/>
<g>
	<path class="st0" d="M163.48,190.01c-17.36,47.83-60.94,57.66-91.73,57.66C38.33,247.67,0,231.3,0,164.13C0,92.71,23.26,0,110.41,0
		c30.47,0,57,12.12,57,43.9c0,17.36-6.23,30.14-22.93,30.14c-5.24,0-12.45-1.31-18.67-8.52c8.19-2.29,14.42-18.67,14.42-26.86
		c0-5.24-1.64-23.26-22.6-23.26c-40.3,0-66.18,83.21-66.18,141.53c0,42.92,7.87,61.26,43.25,61.26c25.23,0,49.14-10.48,61.26-31.45
		L163.48,190.01z"/>
	<path class="st1" d="M22.36,209.3c-2.45,11.77,4.47,23.11,4.47,23.11s10.9-7.73,13.35-19.49c2.45-11.76-4.47-23.11-4.47-23.11
		S24.81,197.53,22.36,209.3"/>
	<path class="st1" d="M56.18,225.66c-11.87,1.88-20.03,12.38-20.03,12.38s11.09,7.44,22.96,5.57c11.87-1.88,20.02-12.38,20.02-12.38
		S68.05,223.78,56.18,225.66"/>
	<path class="st1" d="M42.9,191.9c-0.5,10.96,7.39,20.18,7.39,20.18s8.7-8.55,9.19-19.51c0.5-10.96-7.39-20.17-7.39-20.17
		S43.4,180.95,42.9,191.9"/>
	<path class="st1" d="M77.95,219.7c-10.41,3.47-21.42-1.61-21.42-1.61s5.86-10.69,16.26-14.16c10.41-3.47,21.43,1.61,21.43,1.61
		S88.35,216.23,77.95,219.7"/>
	<path class="st1" d="M94.26,196.32c-9.89,4.74-21.45,1.08-21.45,1.08s4.46-11.34,14.36-16.08c9.89-4.74,21.46-1.08,21.46-1.08
		S104.15,191.58,94.26,196.32"/>
	<path class="st1" d="M103.43,171.84c-8.22,5.23-18.81,3.23-18.81,3.23s2.74-10.48,10.96-15.71c8.22-5.23,18.81-3.23,18.81-3.23
		S111.65,166.61,103.43,171.84"/>
	<path class="st1" d="M57.87,173.12c-0.49,10.87,7.33,20,7.33,20s8.62-8.48,9.11-19.34c0.5-10.86-7.33-20.01-7.33-20.01
		S58.37,162.25,57.87,173.12"/>
	<path class="st1" d="M71.29,153.3c0.11,9.74,7.55,17.5,7.55,17.5s7.28-8.01,7.17-17.74c-0.11-9.73-7.56-17.52-7.56-17.52
		S71.19,143.56,71.29,153.3"/>
	<path class="st1" d="M88.13,136.52c-3.09,9.23,1.41,19.01,1.41,19.01s9.49-5.19,12.58-14.42c3.09-9.23-1.41-19.02-1.41-19.02
		S91.21,127.29,88.13,136.52"/>
	<path class="st1" d="M34.57,237.47c51.44-42.26,57.09-88.13,57.09-88.13c-27.56,60.02-61.2,83.41-79.46,92.16
		C19.67,240.27,27.13,238.94,34.57,237.47"/>
</g>
</svg>
