<?xml version="1.0" encoding="utf-8"?>
<!-- Generator: Adobe Illustrator 26.3.1, SVG Export Plug-In . SVG Version: 6.00 Build 0)  -->
<svg version="1.1" id="Calque_1" xmlns="http://www.w3.org/2000/svg" xmlns:xlink="http://www.w3.org/1999/xlink" x="0px" y="0px"
	 viewBox="0 0 464 244.39" style="enable-background:new 0 0 464 244.39;" xml:space="preserve">
<style type="text/css">
	.st0{fill:#714E31;}
	.st1{fill:#F8AB18;}
</style>
<g>
	<path class="st0" d="M32.8,172.97c130.34,37.68,268.07,37.68,398.41,0l-20.14-69.32c-117.16,33.86-240.96,33.86-358.13,0
		L32.8,172.97z M232,203.11c-67.5,0-135-9.53-200.63-28.6l-0.9-0.26l21.18-72.92l0.9,0.26c117.39,34.11,241.49,34.11,358.89,0
		l0.9-0.26l21.19,72.92l-0.9,0.26C367,193.58,299.5,203.11,232,203.11"/>
	<path class="st1" d="M345.52,90.12c-2.24,10.76,4.08,21.13,4.08,21.13s9.96-7.07,12.2-17.82c2.24-10.75-4.09-21.13-4.09-21.13
		S347.77,79.36,345.52,90.12"/>
	<path class="st1" d="M376.45,105.08c-10.86,1.72-18.31,11.32-18.31,11.32s10.14,6.81,21,5.09c10.85-1.72,18.31-11.32,18.31-11.32
		S387.3,103.36,376.45,105.08"/>
	<path class="st1" d="M364.31,74.22c-0.46,10.02,6.75,18.45,6.75,18.45s7.95-7.81,8.4-17.84c0.46-10.02-6.75-18.44-6.75-18.44
		S364.76,64.2,364.31,74.22"/>
	<path class="st1" d="M396.35,99.63c-9.52,3.17-19.59-1.47-19.59-1.47s5.35-9.78,14.87-12.94c9.52-3.17,19.59,1.47,19.59,1.47
		S405.87,96.46,396.35,99.63"/>
	<path class="st1" d="M411.27,78.25c-9.04,4.33-19.61,0.99-19.61,0.99s4.08-10.37,13.13-14.7c9.04-4.33,19.62-0.99,19.62-0.99
		S420.31,73.92,411.27,78.25"/>
	<path class="st1" d="M419.65,55.87c-7.52,4.79-17.2,2.96-17.2,2.96s2.5-9.58,10.02-14.36c7.52-4.78,17.2-2.96,17.2-2.96
		S427.16,51.09,419.65,55.87"/>
	<path class="st1" d="M378,57.04c-0.45,9.94,6.7,18.29,6.7,18.29s7.88-7.75,8.33-17.68c0.45-9.93-6.7-18.29-6.7-18.29
		S378.45,47.1,378,57.04"/>
	<path class="st1" d="M390.26,38.92c0.1,8.9,6.91,16,6.91,16s6.65-7.32,6.56-16.22c-0.1-8.9-6.91-16.01-6.91-16.01
		S390.17,30.02,390.26,38.92"/>
	<path class="st1" d="M405.66,23.58c-2.82,8.44,1.29,17.38,1.29,17.38s8.68-4.74,11.5-13.18c2.82-8.44-1.29-17.39-1.29-17.39
		S408.48,15.14,405.66,23.58"/>
	<path class="st1" d="M356.69,115.88c47.03-38.64,52.19-80.58,52.19-80.58c-25.2,54.87-55.96,76.27-72.65,84.26
		C343.07,118.44,349.89,117.22,356.69,115.88"/>
	<path class="st1" d="M118.48,91.15c2.24,10.76-4.09,21.13-4.09,21.13s-9.96-7.07-12.2-17.82c-2.24-10.75,4.09-21.13,4.09-21.13
		S116.23,80.39,118.48,91.15"/>
	<path class="st1" d="M87.55,106.11c10.85,1.72,18.31,11.32,18.31,11.32s-10.14,6.81-21,5.09c-10.85-1.72-18.31-11.32-18.31-11.32
		S76.69,104.39,87.55,106.11"/>
	<path class="st1" d="M99.7,75.24c0.45,10.02-6.75,18.45-6.75,18.45s-7.95-7.81-8.4-17.84c-0.46-10.02,6.75-18.44,6.75-18.44
		S99.24,65.23,99.7,75.24"/>
	<path class="st1" d="M67.65,100.66c9.51,3.17,19.58-1.47,19.58-1.47s-5.35-9.78-14.87-12.94c-9.51-3.17-19.59,1.47-19.59,1.47
		S58.13,97.49,67.65,100.66"/>
	<path class="st1" d="M52.73,79.28c9.04,4.33,19.61,0.99,19.61,0.99s-4.08-10.37-13.13-14.7c-9.04-4.33-19.62-0.99-19.62-0.99
		S43.69,74.95,52.73,79.28"/>
	<path class="st1" d="M44.35,56.9c7.52,4.79,17.2,2.96,17.2,2.96s-2.51-9.58-10.02-14.36c-7.52-4.78-17.2-2.96-17.2-2.96
		S36.84,52.12,44.35,56.9"/>
	<path class="st1" d="M86,58.07c0.46,9.94-6.7,18.29-6.7,18.29s-7.88-7.75-8.33-17.68c-0.45-9.93,6.7-18.29,6.7-18.29
		S85.55,48.13,86,58.07"/>
	<path class="st1" d="M73.73,39.95c-0.09,8.9-6.9,16-6.9,16s-6.65-7.32-6.55-16.22c0.09-8.9,6.91-16.01,6.91-16.01
		S73.84,31.04,73.73,39.95"/>
	<path class="st1" d="M58.34,24.61c2.83,8.44-1.28,17.38-1.28,17.38s-8.69-4.74-11.5-13.18c-2.82-8.44,1.29-17.39,1.29-17.39
		S55.52,16.17,58.34,24.61"/>
	<path class="st1" d="M105.63,115.53c6.34,1.27,12.7,2.43,19.07,3.51c-17.2-9.07-45.86-31.03-69.59-82.72
		C55.11,36.32,60.14,77.28,105.63,115.53"/>
	<path class="st0" d="M38.05,198.12c16.6,0,33.13,4.41,49.34,8.74c27.54,7.35,56.01,14.95,83.88,0.34v-6.73
		c-47.34-4.01-94.41-12.75-139.89-25.96l-0.9-0.26l14.44-49.69c-15.62-1.09-28.8,1.39-41.26,7.79c7.54,7.73,15.31,17.26,23.72,29.07
		l0.35,0.5l-0.31,0.53c-8.23,13.85-15.85,28.01-23.25,43.22C15.43,200.16,26.76,198.12,38.05,198.12 M136.24,217.41
		c-16.6,0-33.13-4.41-49.34-8.74c-27.7-7.39-56.35-15.04-84.37-0.08L0,209.94l1.24-2.59c7.71-16.02,15.65-30.86,24.24-45.35
		c-8.55-11.97-16.42-21.54-24.06-29.25l-0.89-0.89l1.11-0.59c13.43-7.17,27.59-9.87,44.56-8.5l1.15,0.09L32.8,172.97
		c45.36,13.11,92.29,21.76,139.48,25.7l0.86,0.07v9.58l-0.5,0.27C160.54,215.05,148.37,217.41,136.24,217.41"/>
	<path class="st0" d="M292.73,207.2c27.87,14.61,56.34,7.01,83.88-0.34c27.24-7.27,55.38-14.78,83.24-1.2
		c-7.4-15.21-15.03-29.38-23.25-43.22l-0.31-0.53l0.36-0.5c8.41-11.82,16.18-21.35,23.72-29.07c-12.47-6.4-25.64-8.89-41.26-7.79
		l14.44,49.69l-0.9,0.26c-45.49,13.21-92.55,21.95-139.9,25.96V207.2z M327.75,217.41c-12.13,0-24.29-2.35-36.4-8.82l-0.5-0.27
		v-9.58l0.86-0.07c47.19-3.94,94.12-12.59,139.49-25.7l-14.56-50.11l1.15-0.09c16.96-1.37,31.13,1.33,44.56,8.5l1.11,0.59
		l-0.88,0.89c-7.64,7.71-15.51,17.28-24.06,29.25c8.59,14.48,16.52,29.32,24.24,45.35l1.25,2.59l-2.53-1.35
		c-28.02-14.96-56.67-7.31-84.37,0.08C360.88,213,344.35,217.41,327.75,217.41"/>
	<path class="st0" d="M100.1,162c-4.83,6.7-12.07,6.31-16.88,4.94c-5.22-1.48-10.48-5.74-7.5-16.23
		c3.16-11.16,10.91-24.61,24.52-20.74c4.76,1.35,8.37,4.42,6.96,9.38c-0.77,2.71-2.31,4.43-4.92,3.69
		c-0.82-0.23-1.89-0.76-2.54-2.16c1.38,0,3.08-2.28,3.44-3.56c0.23-0.82,0.78-3.71-2.5-4.64c-6.29-1.79-14.03,10.06-16.61,19.17
		c-1.9,6.7-1.49,9.92,4.04,11.49c3.94,1.12,8.14,0.54,10.96-2.19L100.1,162z"/>
	<path class="st0" d="M114.79,146.95l-1.12,2.48c2.18-1.06,4.5-1.77,6.69-1.3c2.34,0.5,3.46,2.15,3.04,4.12
		c-0.38,1.82-2.21,3.77-4.76,3.23c-2.91-0.62-0.73-3.74-2.29-4.07c-1.56-0.33-2.52,0.07-3.94,0.91l-8.63,19.49l-7.49-1.59
		l11.02-24.86L114.79,146.95z"/>
	<path class="st0" d="M137.52,162.72c-1.52-0.25-2.03-1.46-1.82-2.72c0.25-1.52,1.4-3,2.91-3.3c0.13-1.76-0.29-2.85-1.76-3.09
		c-4.94-0.8-8.78,9.57-9.46,13.77c-0.51,3.15,0.82,4.23,2.87,4.56C133.45,172.46,136.06,167.71,137.52,162.72 M142.24,159.23
		c0.26,0.37,0.71,0.6,1.45,0.72c2.47,0.4,3.86-1.21,5.93-1.68l0.03,1.14c-1.96,1.78-4.97,3.07-8.16,3.42
		c-2.71,10.4-9.29,14.66-14.54,13.81c-5.62-0.91-7.65-3.67-6.64-9.92c2.1-12.92,9.57-17.42,16.82-16.24
		C142.13,151.28,142.75,155.37,142.24,159.23"/>
	<path class="st0" d="M170.53,155.29l-5.86,17.54c-0.17,0.57-0.34,1.14-0.4,1.61c-0.13,1.16,0.3,2.07,2.41,2.31
		c2.11,0.24,5.2-2.4,7.51-3.85l1.8,0.21c-2.71,2.15-9.49,8.5-13.61,8.03c-3.59-0.41-5.87-2.06-5.99-5.18
		c-2.75,2.04-5.85,3.83-8.12,3.57c-4.07-0.47-6.4-2.55-5.95-6.52c0.09-0.79,0.3-1.68,0.63-2.66l5.86-17.54l7.61,0.87l-5.86,17.54
		c-0.17,0.57-0.34,1.14-0.4,1.61c-0.13,1.16,0.3,2.07,2.41,2.31c1.11,0.13,2.53-0.57,3.97-1.47c0.11-0.52,0.29-1.09,0.52-1.71
		l5.86-17.53L170.53,155.29z"/>
	<path class="st0" d="M186.96,148.11c0,0-1.08,3.54-2.45,8.24l3.18,0.25l-0.59,2.09l-3.18-0.25c-4.96,16.48-4.95,17.01-4.97,17.28
		c-0.09,1.22,0.37,2.05,2.49,2.22c2.12,0.17,5.11-2.59,7.36-4.12l1.8,0.14c-2.63,2.25-9.17,8.84-13.31,8.52
		c-4.08-0.32-6.44-2.31-6.13-6.29c0.22-2.81,3.85-13.84,5.11-18.33l-1.75-0.14l0.59-2.09l1.75,0.14l2.16-7.19L186.96,148.11z"/>
	<path class="st0" d="M201.19,159.67c-2.98-0.15-5.72,5.73-7.09,10.66c4.89,0.2,8.56-3.83,8.8-7.59
		C202.96,161.62,202.79,159.75,201.19,159.67 M197.39,179.93c2.6,0.13,7.22-2.72,9.28-6.56l2.39,0.12
		c-3.31,5.32-8.68,10.42-15.53,10.08c-5.1-0.26-7.66-4.28-7.43-8.85c0.34-6.75,3.82-18.45,13.49-17.96
		c4.36,0.22,6.71,2.15,6.52,5.87c-0.33,6.48-7.48,9.85-12.56,10.23c-0.15,0.85-0.24,1.64-0.28,2.28
		C193.09,178.64,195.32,179.82,197.39,179.93"/>
	<path class="st0" d="M228.24,176.13c-0.17,0.58-0.29,1.17-0.29,1.7c-0.02,1.17,0.55,1.98,2.63,2.01c2.13,0.03,2.95-1.6,5.11-3.27
		l1.81,0.03c-2.49,2.4-6.63,8.08-10.78,8.01c-4.15-0.07-6.56-1.92-6.5-5.91c0.01-0.85,0.14-1.7,0.36-2.71l2.18-9.54
		c0.12-0.47,0.18-0.95,0.18-1.38c0.03-1.92-0.96-3.16-2.4-3.18c-1.28-0.02-2.24,0.34-3.37,1.06l-4.88,21.41l-7.66-0.13l6.09-26.5
		l7.66,0.13l-0.69,2.86c2.21-1.56,4.67-2.79,7.02-2.75c2.87,0.05,6.06,3.19,6,6.75c-0.01,0.43-0.01,0.85-0.13,1.27L228.24,176.13z"
		/>
	<path class="st0" d="M240.65,176.72c0.05,3.19,1.82,3.75,3.15,3.73c1.22-0.02,2.37-1.21,3.36-2.72c0.04-0.53,0.14-1.12,0.29-1.76
		l2.74-14.15c-0.86-0.73-1.88-0.93-2.62-0.91C243.57,160.98,240.53,169.49,240.65,176.72 M258.63,157.69l-3.52,18.15
		c-0.1,0.59-0.19,1.17-0.19,1.65c0.02,1.17,0.57,2.01,2.69,1.98c2.13-0.04,4.84-3.06,6.94-4.8l1.81-0.03
		c-2.4,2.49-8.3,9.66-12.44,9.73c-3.46,0.06-5.82-1.18-6.56-3.93c-1.56,2.21-3.92,4.43-7.16,4.48c-5.11,0.09-6.66-3.5-6.71-6.64
		c-0.15-9.15,2.96-20.16,13.59-20.34c1.28-0.02,2.61,0.49,3.59,1.27l0.29-1.39L258.63,157.69z"/>
	<path class="st0" d="M272.16,157.09l-0.46,2.68c1.85-1.57,3.92-2.84,6.15-2.94c2.39-0.11,3.89,1.21,3.98,3.23
		c0.08,1.86-1.19,4.21-3.8,4.33c-2.98,0.13-1.65-3.44-3.24-3.37c-1.6,0.07-2.42,0.69-3.59,1.87l-3.47,21.04l-7.65,0.35l4.43-26.83
		L272.16,157.09z"/>
	<path class="st0" d="M288.87,174.93c0.23,3.18,2.03,3.64,3.36,3.54c1.22-0.09,2.25-1.34,3.15-2.84c0.01-0.59,0.07-1.18,0.19-1.83
		l1.98-14.34c-0.9-0.63-1.92-0.77-2.67-0.71C290.9,159.04,288.34,167.71,288.87,174.93 M303.15,173.24
		c-0.11,0.65-0.18,1.24-0.13,1.82c0.08,1.11,0.57,1.93,2.05,1.82c0.37-0.03,0.96-0.07,1.37-0.26c-1.15,4.67-3.36,5.15-5.16,5.29
		c-3.08,0.23-4.84-1.24-5.55-3.59c-1.43,2.29-3.66,4.59-6.85,4.83c-5.09,0.37-6.85-3.12-7.08-6.25c-0.67-9.13,1.81-20.3,12.42-21.08
		c1.27-0.09,2.64,0.39,3.65,1.06l1.53-11.1l7.72-1.64L303.15,173.24z"/>
	<path class="st0" d="M313.72,172.49c2.33-0.23,4.43,1.48,4.66,3.81c0.23,2.33-1.49,4.37-3.81,4.61c-2.33,0.23-4.37-1.43-4.6-3.76
		C309.73,174.82,311.39,172.73,313.72,172.49"/>
	<path class="st0" d="M336.05,155.24c-0.16-1.27-1.02-1.7-2.18-1.55c-4.43,0.56-6.21,9.52-5.49,15.22c0.39,3.11,1.34,5.57,4.56,5.16
		c3.75-0.47,6.48-3.06,8.57-6.11l1.8-0.22c-2.18,3.17-4.2,10.13-13.55,11.3c-4.38,0.55-7.54-1.52-8.32-7.75
		c-0.97-7.71,1.08-18.31,11.32-19.6c2.85-0.36,5.9,0.01,6.26,2.91c0.07,0.58,0.08,1.06-0.05,1.78c-0.28-0.13-0.73-0.23-1.36-0.15
		c-0.47,0.06-0.99,0.23-1.65,0.53C336.06,156.15,336.1,155.66,336.05,155.24"/>
	<path class="st0" d="M356.39,159.96c-1.52,0.24-2.38-0.75-2.58-2.01c-0.24-1.52,0.39-3.29,1.72-4.05
		c-0.43-1.71-1.17-2.61-2.64-2.38c-4.94,0.79-5.33,11.84-4.66,16.04c0.5,3.15,2.11,3.76,4.16,3.43
		C355.59,170.48,356.57,165.16,356.39,159.96 M359.77,155.17c0.36,0.26,0.86,0.35,1.6,0.23c2.47-0.4,3.29-2.36,5.1-3.46l0.39,1.07
		c-1.3,2.31-3.76,4.48-6.67,5.81c0.69,10.72-4.21,16.83-9.46,17.67c-5.62,0.9-8.41-1.08-9.41-7.33
		c-2.06-12.92,3.61-19.54,10.86-20.69C357.17,147.66,359.05,151.35,359.77,155.17"/>
	<path class="st0" d="M397.25,167.03c-3.37,0.75-5.69-0.58-6.56-4.48c-0.19-0.83-0.27-1.68-0.28-2.72l-0.12-9.79
		c0-0.49-0.05-0.97-0.15-1.38c-0.42-1.87-1.67-2.84-3.07-2.53c-1.14,0.26-1.9,0.75-2.71,1.53c0.29,0.59,0.54,1.19,0.68,1.81
		c0.08,0.36,0.11,0.74,0.14,1.11l0.23,19.09l-7.53,1.68l-0.21-18.49c0-0.49-0.05-0.97-0.15-1.38c-0.42-1.87-1.67-2.84-3.07-2.53
		c-1.25,0.28-2.05,0.84-2.92,1.8l0.22,21.98l-7.48,1.67l-0.3-27.19l7.48-1.67l0.04,2.88c1.74-1.97,3.85-3.75,6.08-4.25
		c1.92-0.43,4.25,0.47,5.83,2.19c1.94-2.29,4.24-4.44,6.79-5.01c2.86-0.64,6.64,1.68,7.43,5.21c0.09,0.42,0.12,0.79,0.16,1.22
		c0.12,1.77-0.07,11.41,0.19,12.55c0.2,0.88,0.78,1.52,2.28,1.18c0.36-0.08,0.94-0.21,1.32-0.46
		C401.12,165.83,399.01,166.63,397.25,167.03"/>
	<path class="st0" d="M329.18,93.64c-8.83-7.45-21.41-13.76-36.53-18.35c-1.31-0.27-2.07-0.4-2.07-0.4s5.98,11.1,8.82,19.08
		c-4.37-4.99-12.37-17.95-26.48-23.41c-5.4-0.98-11-1.77-16.77-2.34c-0.48,0.04-0.96,0.07-1.46,0.13
		c6.26,8.26,9.97,21.06,9.97,24.34c-11.05-15.73-23.46-23.77-33.12-25.52c-5.64,0.06-11.18,0.32-16.59,0.77
		c-1.27,0.22-1.54,0.4-1.54,0.4s12.25,13.38,17.37,24.35c-11.95-11.81-26.61-21.72-29.76-23.15c-8.33,1.25-16.24,2.96-23.59,5.07
		c0.02,0.01,10.63,8.27,14.05,16.52c-14.21-9.37-20.44-13.77-26.4-12.38c-9.37,3.62-17.44,7.95-23.87,12.83
		c-3.94,3.12-7.4,6.64-9.53,10.37c-6.83,11.96,6.83,15.09,12.24,15.09h177.67C330.15,117.04,340.5,107.84,329.18,93.64"/>
	<path class="st0" d="M215.05,0c0,0-8.34,12.47-3.25,26.63c5.1,14.16,5.91,22.96,3.25,30.61c6.72-9.04,4.61-25.03,1.49-34.42
		C213.43,13.44,215.05,0,215.05,0"/>
	<path class="st0" d="M233.82,0c0,0-8.34,12.47-3.25,26.63c5.1,14.16,5.92,22.96,3.25,30.61c6.72-9.04,4.61-25.03,1.49-34.42
		C232.2,13.44,233.82,0,233.82,0"/>
	<path class="st0" d="M249.41,0c0,0-8.35,12.47-3.25,26.63c5.1,14.16,5.91,22.96,3.25,30.61c6.72-9.04,4.6-25.03,1.49-34.42
		C247.79,13.44,249.41,0,249.41,0"/>
	<path class="st0" d="M183.88,231.92c0-1.31,0.31-2.31,0.94-3.01c0.62-0.7,1.56-1.05,2.8-1.05c1.25,0,2.18,0.35,2.81,1.05
		c0.62,0.7,0.94,1.7,0.94,3.01v0.62h-2.4v-0.79c0-0.58-0.11-1-0.33-1.23c-0.22-0.24-0.53-0.36-0.94-0.36s-0.71,0.12-0.94,0.36
		c-0.22,0.24-0.33,0.65-0.33,1.23c0,0.55,0.12,1.04,0.37,1.47c0.24,0.42,0.55,0.82,0.92,1.2c0.37,0.38,0.77,0.75,1.19,1.13
		c0.42,0.38,0.82,0.79,1.19,1.23c0.37,0.45,0.68,0.96,0.92,1.52c0.25,0.57,0.37,1.24,0.37,2.01c0,1.31-0.32,2.31-0.96,3.01
		c-0.64,0.7-1.58,1.05-2.83,1.05c-1.25,0-2.19-0.35-2.83-1.05c-0.64-0.7-0.96-1.7-0.96-3.01v-1.11h2.4v1.27
		c0,0.58,0.12,0.99,0.36,1.22c0.24,0.23,0.56,0.35,0.96,0.35c0.4,0,0.72-0.12,0.96-0.35c0.24-0.23,0.36-0.64,0.36-1.22
		c0-0.55-0.12-1.04-0.37-1.47c-0.25-0.42-0.55-0.82-0.92-1.2c-0.37-0.38-0.77-0.75-1.19-1.13c-0.43-0.38-0.82-0.79-1.19-1.23
		c-0.37-0.45-0.68-0.95-0.92-1.52C184.01,233.36,183.88,232.69,183.88,231.92"/>
</g>
<rect x="195.15" y="228.04" class="st0" width="2.54" height="16.16"/>
<polygon class="st0" points="204.11,232.5 204.11,244.2 201.82,244.2 201.82,228.04 205.01,228.04 207.62,237.72 207.62,228.04 
	209.88,228.04 209.88,244.2 207.27,244.2 "/>
<g>
	<path class="st0" d="M221.38,238.18v2.15c0,1.31-0.32,2.31-0.96,3.01c-0.64,0.7-1.58,1.05-2.83,1.05c-1.25,0-2.19-0.35-2.83-1.05
		c-0.64-0.7-0.96-1.7-0.96-3.01v-8.4c0-1.31,0.32-2.31,0.96-3.01c0.64-0.7,1.58-1.05,2.83-1.05c1.25,0,2.19,0.35,2.83,1.05
		c0.64,0.7,0.96,1.7,0.96,3.01v1.57h-2.4v-1.73c0-0.58-0.12-1-0.36-1.23c-0.24-0.24-0.56-0.36-0.96-0.36c-0.4,0-0.72,0.12-0.96,0.36
		c-0.24,0.24-0.36,0.65-0.36,1.23v8.73c0,0.58,0.12,0.99,0.36,1.22c0.24,0.23,0.56,0.35,0.96,0.35c0.4,0,0.72-0.12,0.96-0.35
		c0.24-0.23,0.36-0.64,0.36-1.22v-2.31H221.38z"/>
</g>
<polygon class="st0" points="227.77,234.85 231.26,234.85 231.26,237.16 227.77,237.16 227.77,241.89 232.16,241.89 232.16,244.2 
	225.23,244.2 225.23,228.04 232.16,228.04 232.16,230.35 227.77,230.35 "/>
<g>
	<path class="st0" d="M243.49,230.07c0.49,0,0.9-0.05,1.21-0.16c0.32-0.11,0.57-0.25,0.77-0.44c0.2-0.19,0.36-0.4,0.48-0.65
		c0.12-0.25,0.23-0.51,0.32-0.79H248v16.16h-2.54v-12.33h-1.96V230.07z"/>
	<path class="st0" d="M256.98,236.26c0.4,0,0.72-0.12,0.96-0.36c0.24-0.24,0.36-0.65,0.36-1.23v-2.91c0-0.58-0.12-0.99-0.36-1.22
		c-0.24-0.23-0.56-0.35-0.96-0.35c-0.4,0-0.72,0.11-0.96,0.35c-0.24,0.23-0.36,0.64-0.36,1.22v2.91c0,0.58,0.12,1,0.36,1.23
		C256.26,236.14,256.58,236.26,256.98,236.26 M260.83,240.19c0,1.37-0.32,2.41-0.94,3.13c-0.63,0.72-1.61,1.07-2.93,1.07
		c-1.25,0-2.19-0.35-2.83-1.05c-0.64-0.7-0.96-1.71-0.96-3.01v-0.42h2.4v0.58c0,0.58,0.12,1,0.36,1.23
		c0.24,0.24,0.56,0.36,0.96,0.36c0.45,0,0.79-0.14,1.04-0.42c0.25-0.28,0.37-0.8,0.37-1.57v-2.96c-0.45,0.96-1.23,1.43-2.35,1.43
		c-0.94,0-1.64-0.31-2.11-0.95c-0.47-0.63-0.7-1.55-0.7-2.75v-2.96c0-1.31,0.33-2.31,0.99-3.01c0.66-0.7,1.62-1.05,2.86-1.05
		c1.25,0,2.2,0.35,2.86,1.05c0.66,0.7,0.99,1.7,0.99,3.01V240.19z"/>
	<path class="st0" d="M269.72,232.01c0-0.72-0.12-1.21-0.36-1.47c-0.24-0.25-0.56-0.38-0.96-0.38c-0.4,0-0.72,0.12-0.96,0.36
		c-0.24,0.24-0.36,0.65-0.36,1.23v1.04h-2.4v-0.88c0-1.31,0.32-2.31,0.96-3.01c0.64-0.7,1.58-1.05,2.83-1.05
		c1.25,0,2.19,0.35,2.83,1.05c0.64,0.7,0.96,1.7,0.96,3.01v0.42c0,1.73-0.59,2.83-1.78,3.33c0.65,0.28,1.1,0.71,1.37,1.28
		c0.27,0.58,0.4,1.28,0.4,2.11v1.27c0,1.31-0.32,2.31-0.96,3.01c-0.64,0.7-1.58,1.05-2.83,1.05c-1.25,0-2.19-0.35-2.83-1.05
		c-0.64-0.7-0.96-1.7-0.96-3.01v-1.34h2.4v1.5c0,0.58,0.12,1,0.36,1.23c0.24,0.24,0.56,0.36,0.96,0.36c0.4,0,0.72-0.12,0.96-0.37
		c0.24-0.25,0.36-0.73,0.36-1.45v-1.27c0-0.75-0.13-1.28-0.39-1.59c-0.26-0.31-0.68-0.46-1.27-0.46h-0.86v-2.31h0.99
		c0.48,0,0.85-0.12,1.12-0.37c0.27-0.25,0.4-0.69,0.4-1.34V232.01z"/>
</g>
<path class="st0" d="M280.53,238.96v-5.98l-2.52,5.98H280.53z M275.68,238.96l4.62-10.92h2.77v10.92h1.2v2.31h-1.2v2.93h-2.54v-2.93
	h-4.85V238.96z"/>
<polygon class="st0" points="127.14,229.67 128.84,234.8 134.25,234.78 129.89,237.98 131.59,243.12 127.19,239.95 122.83,243.16 
	124.48,238.01 120.09,234.85 125.5,234.82 "/>
<polygon class="st0" points="146.09,229.67 147.79,234.8 153.2,234.78 148.84,237.98 150.54,243.12 146.14,239.95 141.78,243.16 
	143.43,238.01 139.03,234.85 144.44,234.82 "/>
<polygon class="st0" points="165.04,229.67 166.74,234.8 172.15,234.78 167.79,237.98 169.49,243.12 165.1,239.95 160.73,243.16 
	162.38,238.01 157.99,234.85 163.4,234.82 "/>
<polygon class="st0" points="300.49,229.67 302.18,234.8 307.59,234.78 303.23,237.98 304.93,243.12 300.54,239.95 296.17,243.16 
	297.82,238.01 293.43,234.85 298.84,234.82 "/>
<polygon class="st0" points="319.44,229.67 321.14,234.8 326.55,234.78 322.18,237.98 323.88,243.12 319.49,239.95 315.12,243.16 
	316.77,238.01 312.38,234.85 317.79,234.82 "/>
<polygon class="st0" points="338.39,229.67 340.09,234.8 345.5,234.78 341.13,237.98 342.83,243.12 338.44,239.95 334.07,243.16 
	335.72,238.01 331.33,234.85 336.74,234.82 "/>
</svg>
