<?xml version="1.0" encoding="utf-8"?>
<!-- Generator: Adobe Illustrator 26.3.1, SVG Export Plug-In . SVG Version: 6.00 Build 0)  -->
<svg version="1.1" id="Calque_1" xmlns="http://www.w3.org/2000/svg" xmlns:xlink="http://www.w3.org/1999/xlink" x="0px" y="0px"
	 viewBox="0 0 464 244.39" style="enable-background:new 0 0 464 244.39;" xml:space="preserve">
<style type="text/css">
	.st0{fill:#020203;}
	.st1{fill:#B3B3B3;}
</style>
<g>
	<path class="st0" d="M39.81,171.96c126.4,36.54,259.98,36.54,386.39,0l-19.53-67.23c-113.63,32.84-233.69,32.84-347.33,0
		L39.81,171.96z M233,201.19c-65.46,0-130.93-9.25-194.57-27.74l-0.87-0.25l20.54-70.72l0.87,0.25
		c113.85,33.08,234.21,33.08,348.06,0l0.87-0.25l20.55,70.72l-0.87,0.25C363.93,191.95,298.46,201.19,233,201.19"/>
	<path class="st1" d="M343.1,91.61c-2.17,10.43,3.96,20.49,3.96,20.49s9.66-6.85,11.83-17.29c2.17-10.43-3.96-20.5-3.96-20.5
		S345.27,81.18,343.1,91.61"/>
	<path class="st1" d="M373.09,106.13c-10.53,1.67-17.76,10.98-17.76,10.98s9.84,6.6,20.36,4.94c10.52-1.67,17.76-10.98,17.76-10.98
		S383.62,104.46,373.09,106.13"/>
	<path class="st1" d="M361.31,76.19c-0.44,9.72,6.55,17.89,6.55,17.89s7.71-7.58,8.15-17.3c0.44-9.71-6.55-17.89-6.55-17.89
		S361.76,66.47,361.31,76.19"/>
	<path class="st1" d="M392.39,100.84c-9.23,3.07-19-1.43-19-1.43s5.19-9.48,14.42-12.55c9.23-3.08,19,1.42,19,1.42
		S401.62,97.76,392.39,100.84"/>
	<path class="st1" d="M406.86,80.1c-8.77,4.2-19.02,0.96-19.02,0.96s3.96-10.06,12.73-14.26c8.77-4.2,19.03-0.96,19.03-0.96
		S415.63,75.9,406.86,80.1"/>
	<path class="st1" d="M414.99,58.4c-7.29,4.64-16.68,2.87-16.68,2.87s2.43-9.29,9.72-13.93c7.29-4.64,16.68-2.87,16.68-2.87
		S422.27,53.76,414.99,58.4"/>
	<path class="st1" d="M374.59,59.53c-0.44,9.64,6.5,17.74,6.5,17.74s7.64-7.52,8.08-17.15c0.44-9.63-6.5-17.74-6.5-17.74
		S375.03,49.9,374.59,59.53"/>
	<path class="st1" d="M386.49,41.96c0.09,8.64,6.7,15.52,6.7,15.52s6.45-7.1,6.36-15.73c-0.09-8.63-6.7-15.53-6.7-15.53
		S386.4,33.32,386.49,41.96"/>
	<path class="st1" d="M401.42,27.08c-2.74,8.19,1.25,16.86,1.25,16.86s8.42-4.6,11.16-12.79c2.74-8.18-1.25-16.86-1.25-16.86
		S404.16,18.9,401.42,27.08"/>
	<path class="st1" d="M353.93,116.59c45.61-37.47,50.62-78.15,50.62-78.15c-24.44,53.22-54.27,73.96-70.46,81.72
		C340.72,119.08,347.33,117.9,353.93,116.59"/>
	<path class="st1" d="M122.9,92.61c2.17,10.43-3.96,20.49-3.96,20.49s-9.66-6.85-11.83-17.29c-2.17-10.43,3.96-20.5,3.96-20.5
		S120.73,82.18,122.9,92.61"/>
	<path class="st1" d="M92.91,107.12c10.53,1.67,17.76,10.98,17.76,10.98s-9.84,6.6-20.37,4.94c-10.52-1.67-17.75-10.98-17.75-10.98
		S82.38,105.46,92.91,107.12"/>
	<path class="st1" d="M104.69,77.19c0.44,9.72-6.55,17.89-6.55,17.89s-7.71-7.58-8.15-17.3c-0.44-9.71,6.55-17.89,6.55-17.89
		S104.25,67.47,104.69,77.19"/>
	<path class="st1" d="M73.61,101.83c9.23,3.07,18.99-1.43,18.99-1.43s-5.19-9.48-14.42-12.55c-9.23-3.08-19,1.42-19,1.42
		S64.38,98.76,73.61,101.83"/>
	<path class="st1" d="M59.14,81.1c8.77,4.2,19.02,0.96,19.02,0.96S74.2,72,65.43,67.8c-8.77-4.2-19.03-0.96-19.03-0.96
		S50.37,76.9,59.14,81.1"/>
	<path class="st1" d="M51.01,59.4c7.29,4.64,16.68,2.87,16.68,2.87s-2.43-9.29-9.72-13.93c-7.29-4.64-16.68-2.87-16.68-2.87
		S43.73,54.76,51.01,59.4"/>
	<path class="st1" d="M91.4,60.53c0.44,9.64-6.49,17.74-6.49,17.74s-7.64-7.52-8.08-17.15c-0.44-9.63,6.49-17.74,6.49-17.74
		S90.97,50.89,91.4,60.53"/>
	<path class="st1" d="M79.51,42.95c-0.09,8.64-6.7,15.52-6.7,15.52s-6.45-7.1-6.36-15.73c0.09-8.63,6.7-15.53,6.7-15.53
		S79.61,34.32,79.51,42.95"/>
	<path class="st1" d="M64.58,28.08c2.74,8.19-1.25,16.86-1.25,16.86s-8.42-4.6-11.16-12.79c-2.74-8.18,1.25-16.86,1.25-16.86
		S61.85,19.89,64.58,28.08"/>
	<path class="st1" d="M110.45,116.26c6.15,1.23,12.32,2.36,18.5,3.4c-16.68-8.79-44.48-30.09-67.49-80.22
		C61.45,39.44,66.32,79.16,110.45,116.26"/>
	<path class="st0" d="M44.9,196.36c16.1,0,32.13,4.28,47.85,8.47c26.71,7.13,54.32,14.5,81.35,0.33v-6.53
		c-45.92-3.89-91.56-12.36-135.67-25.18l-0.87-0.25l14-48.19c-15.15-1.06-27.93,1.35-40.02,7.56c7.31,7.5,14.85,16.74,23,28.2
		l0.34,0.48l-0.3,0.51c-7.98,13.43-15.38,27.17-22.55,41.91C22.97,198.34,33.95,196.36,44.9,196.36 M140.13,215.06
		c-16.1,0-32.13-4.28-47.85-8.47c-26.87-7.17-54.65-14.58-81.83-0.08L8,207.82l1.21-2.51c7.48-15.54,15.17-29.93,23.51-43.98
		c-8.29-11.61-15.92-20.89-23.33-28.37l-0.86-0.87l1.08-0.58c13.02-6.95,26.75-9.57,43.21-8.24l1.11,0.09l-14.11,48.59
		c43.99,12.72,89.5,21.1,135.28,24.93l0.83,0.07v9.29l-0.48,0.26C163.7,212.78,151.89,215.06,140.13,215.06"/>
	<path class="st0" d="M291.9,205.16c27.02,14.17,54.64,6.8,81.35-0.33c26.42-7.05,53.7-14.33,80.73-1.16
		c-7.18-14.75-14.57-28.49-22.55-41.91l-0.3-0.51l0.34-0.48c8.16-11.46,15.7-20.7,23-28.2c-12.09-6.21-24.87-8.62-40.02-7.56
		l14,48.19l-0.87,0.25c-44.12,12.81-89.76,21.29-135.67,25.18V205.16z M325.86,215.06c-11.76,0-23.56-2.28-35.3-8.55l-0.48-0.26
		v-9.29l0.83-0.07c45.77-3.82,91.28-12.21,135.28-24.93l-14.12-48.59l1.11-0.09c16.45-1.33,30.19,1.29,43.21,8.24l1.08,0.58
		l-0.86,0.87c-7.41,7.47-15.04,16.76-23.33,28.37c8.33,14.04,16.02,28.44,23.5,43.98l1.21,2.51l-2.46-1.31
		c-27.18-14.51-54.96-7.09-81.83,0.08C358,210.78,341.96,215.06,325.86,215.06"/>
	<path class="st0" d="M105.08,161.33c-4.69,6.5-11.71,6.12-16.37,4.79c-5.06-1.43-10.16-5.57-7.28-15.74
		c3.07-10.82,10.58-23.86,23.78-20.12c4.61,1.31,8.11,4.29,6.75,9.1c-0.75,2.63-2.24,4.3-4.77,3.58c-0.79-0.22-1.83-0.73-2.46-2.09
		c1.34,0,2.99-2.21,3.34-3.45c0.23-0.79,0.75-3.59-2.42-4.5c-6.1-1.73-13.6,9.76-16.11,18.59c-1.84,6.5-1.44,9.62,3.92,11.14
		c3.82,1.08,7.89,0.52,10.63-2.13L105.08,161.33z"/>
	<path class="st0" d="M119.33,146.73l-1.09,2.41c2.12-1.03,4.37-1.71,6.49-1.26c2.27,0.48,3.36,2.08,2.95,4
		c-0.37,1.77-2.15,3.66-4.62,3.14c-2.83-0.6-0.71-3.63-2.22-3.95c-1.51-0.32-2.44,0.06-3.82,0.88l-8.37,18.9l-7.27-1.54l10.69-24.11
		L119.33,146.73z"/>
	<path class="st0" d="M141.37,162.02c-1.48-0.24-1.97-1.42-1.77-2.64c0.24-1.48,1.36-2.91,2.82-3.2c0.12-1.7-0.28-2.76-1.71-3
		c-4.79-0.78-8.52,9.28-9.18,13.36c-0.5,3.05,0.8,4.1,2.78,4.42C137.43,171.47,139.95,166.86,141.37,162.02 M145.94,158.63
		c0.26,0.36,0.69,0.58,1.4,0.7c2.39,0.39,3.74-1.17,5.75-1.63l0.03,1.1c-1.9,1.73-4.82,2.98-7.91,3.32
		c-2.63,10.08-9,14.22-14.1,13.39c-5.45-0.89-7.42-3.56-6.44-9.62c2.04-12.53,9.28-16.9,16.31-15.75
		C145.84,150.93,146.45,154.9,145.94,158.63"/>
	<path class="st0" d="M173.39,154.82l-5.68,17.01c-0.17,0.55-0.33,1.1-0.39,1.57c-0.13,1.13,0.29,2.01,2.34,2.24
		c2.05,0.23,5.04-2.33,7.28-3.74l1.74,0.2c-2.63,2.09-9.2,8.24-13.2,7.79c-3.48-0.4-5.69-2-5.81-5.03
		c-2.67,1.98-5.67,3.71-7.87,3.46c-3.95-0.45-6.21-2.48-5.77-6.32c0.09-0.77,0.29-1.63,0.61-2.58l5.68-17.01l7.38,0.85l-5.68,17.01
		c-0.17,0.55-0.33,1.1-0.39,1.56c-0.13,1.13,0.29,2.01,2.34,2.24c1.08,0.12,2.45-0.55,3.85-1.43c0.11-0.51,0.28-1.06,0.5-1.66
		l5.68-17.01L173.39,154.82z"/>
	<path class="st0" d="M189.32,147.86c0,0-1.04,3.44-2.38,7.99l3.09,0.24l-0.57,2.03l-3.09-0.24c-4.81,15.98-4.8,16.5-4.82,16.76
		c-0.09,1.18,0.36,1.99,2.42,2.15c2.06,0.16,4.96-2.51,7.14-4l1.75,0.14c-2.55,2.18-8.89,8.57-12.9,8.26
		c-3.96-0.31-6.24-2.24-5.94-6.1c0.21-2.73,3.73-13.42,4.95-17.78l-1.7-0.13l0.57-2.03l1.7,0.13l2.1-6.98L189.32,147.86z"/>
	<path class="st0" d="M203.12,159.06c-2.89-0.15-5.55,5.56-6.88,10.34c4.74,0.19,8.3-3.71,8.54-7.36
		C204.83,160.96,204.67,159.14,203.12,159.06 M199.43,178.71c2.52,0.13,7-2.64,9-6.36l2.32,0.12c-3.21,5.16-8.42,10.11-15.07,9.77
		c-4.95-0.25-7.43-4.15-7.21-8.58c0.33-6.54,3.7-17.89,13.08-17.41c4.23,0.21,6.51,2.09,6.32,5.69c-0.32,6.29-7.25,9.55-12.18,9.92
		c-0.15,0.82-0.24,1.59-0.27,2.21C195.26,177.46,197.42,178.61,199.43,178.71"/>
	<path class="st0" d="M229.35,175.03c-0.16,0.57-0.28,1.13-0.29,1.65c-0.02,1.13,0.54,1.92,2.55,1.95c2.06,0.03,2.86-1.55,4.96-3.17
		l1.75,0.03c-2.41,2.33-6.43,7.84-10.45,7.77c-4.02-0.07-6.37-1.86-6.3-5.73c0.01-0.83,0.13-1.65,0.35-2.63l2.12-9.25
		c0.11-0.46,0.17-0.93,0.18-1.34c0.03-1.86-0.93-3.06-2.32-3.08c-1.24-0.02-2.17,0.33-3.27,1.03l-4.74,20.77l-7.43-0.13l5.9-25.7
		l7.43,0.13l-0.67,2.77c2.14-1.51,4.53-2.71,6.8-2.67c2.79,0.05,5.88,3.09,5.82,6.55c-0.01,0.41-0.01,0.82-0.12,1.24L229.35,175.03z
		"/>
	<path class="st0" d="M241.39,175.6c0.05,3.1,1.76,3.63,3.05,3.61c1.19-0.02,2.3-1.18,3.26-2.64c0.04-0.52,0.14-1.09,0.28-1.71
		l2.66-13.72c-0.84-0.71-1.82-0.9-2.54-0.88C244.22,160.33,241.27,168.59,241.39,175.6 M258.82,157.15l-3.42,17.6
		c-0.09,0.57-0.19,1.14-0.18,1.6c0.02,1.13,0.55,1.95,2.61,1.92c2.06-0.03,4.7-2.97,6.73-4.65l1.75-0.03
		c-2.33,2.41-8.05,9.37-12.07,9.44c-3.35,0.06-5.64-1.14-6.36-3.81c-1.51,2.14-3.8,4.3-6.94,4.35c-4.95,0.08-6.45-3.4-6.51-6.44
		c-0.15-8.87,2.87-19.55,13.18-19.73c1.24-0.02,2.54,0.47,3.48,1.23l0.29-1.35L258.82,157.15z"/>
	<path class="st0" d="M271.95,156.56l-0.45,2.6c1.79-1.53,3.8-2.75,5.97-2.85c2.32-0.1,3.77,1.17,3.86,3.13
		c0.08,1.81-1.16,4.08-3.68,4.2c-2.89,0.13-1.6-3.34-3.14-3.27c-1.55,0.07-2.35,0.67-3.48,1.81l-3.37,20.4l-7.42,0.34l4.3-26.02
		L271.95,156.56z"/>
	<path class="st0" d="M288.15,173.87c0.23,3.09,1.97,3.53,3.26,3.43c1.18-0.09,2.18-1.3,3.06-2.76c0.01-0.57,0.07-1.14,0.18-1.77
		l1.92-13.91c-0.87-0.61-1.87-0.74-2.59-0.69C290.12,158.46,287.64,166.87,288.15,173.87 M302,172.23c-0.11,0.63-0.17,1.2-0.13,1.77
		c0.08,1.08,0.55,1.87,1.99,1.77c0.36-0.03,0.93-0.07,1.33-0.25c-1.12,4.53-3.25,5-5,5.13c-2.98,0.22-4.69-1.21-5.38-3.48
		c-1.39,2.22-3.55,4.45-6.64,4.68c-4.94,0.36-6.64-3.03-6.86-6.06c-0.65-8.85,1.76-19.69,12.05-20.45c1.24-0.09,2.56,0.38,3.54,1.03
		l1.48-10.77l7.49-1.59L302,172.23z"/>
	<path class="st0" d="M312.26,171.5c2.26-0.23,4.29,1.43,4.52,3.69c0.23,2.26-1.44,4.24-3.7,4.47c-2.26,0.23-4.24-1.39-4.47-3.65
		C308.39,173.76,310,171.73,312.26,171.5"/>
	<path class="st0" d="M333.91,154.77c-0.15-1.23-0.99-1.64-2.11-1.5c-4.3,0.54-6.02,9.23-5.33,14.76c0.38,3.02,1.3,5.4,4.42,5.01
		c3.64-0.46,6.29-2.97,8.31-5.93l1.74-0.22c-2.11,3.07-4.08,9.82-13.14,10.96c-4.25,0.53-7.31-1.48-8.07-7.52
		c-0.94-7.48,1.05-17.76,10.98-19.01c2.77-0.35,5.72,0.01,6.08,2.83c0.07,0.56,0.08,1.03-0.04,1.72c-0.27-0.12-0.7-0.22-1.32-0.15
		c-0.46,0.06-0.96,0.22-1.6,0.51C333.92,155.65,333.96,155.18,333.91,154.77"/>
	<path class="st0" d="M353.63,159.35c-1.48,0.24-2.31-0.73-2.5-1.95c-0.24-1.48,0.38-3.19,1.67-3.92c-0.42-1.66-1.14-2.53-2.56-2.31
		c-4.79,0.76-5.17,11.48-4.52,15.56c0.49,3.06,2.04,3.64,4.03,3.33C352.86,169.55,353.81,164.39,353.63,159.35 M356.91,154.7
		c0.35,0.26,0.84,0.34,1.55,0.22c2.39-0.38,3.19-2.29,4.95-3.35l0.37,1.04c-1.26,2.24-3.64,4.34-6.47,5.63
		c0.67,10.39-4.08,16.32-9.17,17.14c-5.45,0.87-8.16-1.05-9.13-7.11c-2-12.53,3.5-18.95,10.53-20.07
		C354.39,147.42,356.22,151,356.91,154.7"/>
	<path class="st0" d="M393.26,166.2c-3.27,0.73-5.52-0.57-6.36-4.34c-0.18-0.8-0.26-1.63-0.27-2.64l-0.11-9.49
		c0-0.48-0.05-0.94-0.14-1.34c-0.4-1.81-1.62-2.76-2.98-2.45c-1.11,0.25-1.85,0.73-2.63,1.49c0.29,0.57,0.52,1.15,0.66,1.76
		c0.08,0.35,0.11,0.72,0.14,1.08l0.22,18.51l-7.3,1.63l-0.2-17.93c0-0.48-0.05-0.94-0.14-1.34c-0.4-1.81-1.62-2.76-2.98-2.45
		c-1.21,0.27-1.99,0.81-2.84,1.74l0.22,21.31l-7.25,1.62L361,146.98l7.25-1.62l0.04,2.79c1.69-1.91,3.73-3.64,5.9-4.12
		c1.86-0.42,4.12,0.46,5.66,2.12c1.88-2.22,4.11-4.3,6.58-4.86c2.77-0.62,6.44,1.63,7.21,5.05c0.09,0.4,0.12,0.77,0.16,1.18
		c0.12,1.72-0.07,11.07,0.18,12.17c0.19,0.86,0.75,1.47,2.21,1.14c0.35-0.08,0.91-0.2,1.28-0.44
		C397.02,165.04,394.97,165.82,393.26,166.2"/>
	<path class="st0" d="M327.25,95.03c-8.56-7.23-20.76-13.34-35.43-17.8c-1.27-0.26-2.01-0.38-2.01-0.38s5.8,10.77,8.56,18.5
		c-4.23-4.84-12-17.41-25.68-22.71c-5.24-0.95-10.66-1.72-16.26-2.27c-0.47,0.03-0.93,0.07-1.41,0.12
		c6.07,8.01,9.67,20.42,9.67,23.6c-10.72-15.25-22.75-23.05-32.12-24.75c-5.47,0.06-10.85,0.31-16.09,0.74
		c-1.23,0.21-1.49,0.39-1.49,0.39s11.88,12.98,16.85,23.62c-11.59-11.45-25.81-21.06-28.86-22.45c-8.08,1.21-15.75,2.87-22.87,4.92
		c0.02,0.01,10.31,8.02,13.62,16.02c-13.78-9.09-19.82-13.36-25.6-12.01c-9.08,3.51-16.91,7.71-23.15,12.44
		c-3.82,3.03-7.18,6.44-9.24,10.06c-6.63,11.6,6.63,14.63,11.87,14.63h172.31C328.19,117.72,338.23,108.8,327.25,95.03"/>
	<path class="st0" d="M216.56,4.21c0,0-8.09,12.1-3.15,25.83c4.95,13.73,5.73,22.27,3.15,29.69c6.52-8.76,4.47-24.28,1.45-33.38
		C214.99,17.25,216.56,4.21,216.56,4.21"/>
	<path class="st0" d="M234.77,4.21c0,0-8.09,12.1-3.15,25.83c4.95,13.73,5.74,22.27,3.15,29.69c6.52-8.76,4.47-24.28,1.45-33.38
		C233.19,17.25,234.77,4.21,234.77,4.21"/>
	<path class="st0" d="M249.89,4.21c0,0-8.1,12.1-3.15,25.83c4.95,13.73,5.73,22.27,3.15,29.69c6.51-8.76,4.47-24.28,1.45-33.38
		C248.31,17.25,249.89,4.21,249.89,4.21"/>
	<path class="st0" d="M186.34,229.14c0-1.27,0.3-2.24,0.91-2.92c0.61-0.68,1.51-1.02,2.72-1.02c1.21,0,2.12,0.34,2.72,1.02
		c0.61,0.68,0.91,1.65,0.91,2.92v0.61h-2.33v-0.76c0-0.57-0.11-0.97-0.32-1.2c-0.22-0.23-0.52-0.35-0.91-0.35
		c-0.39,0-0.69,0.12-0.91,0.35c-0.22,0.23-0.32,0.63-0.32,1.2c0,0.54,0.12,1.01,0.36,1.42c0.24,0.41,0.54,0.8,0.89,1.16
		c0.36,0.36,0.74,0.73,1.15,1.1c0.41,0.37,0.79,0.76,1.15,1.2c0.36,0.43,0.66,0.93,0.9,1.48c0.24,0.55,0.36,1.2,0.36,1.95
		c0,1.27-0.31,2.24-0.93,2.92c-0.62,0.68-1.53,1.02-2.74,1.02c-1.21,0-2.12-0.34-2.74-1.02c-0.62-0.68-0.93-1.65-0.93-2.92v-1.08
		h2.33v1.23c0,0.57,0.12,0.96,0.35,1.19c0.23,0.22,0.54,0.34,0.93,0.34c0.39,0,0.7-0.11,0.93-0.34c0.23-0.22,0.35-0.62,0.35-1.19
		c0-0.54-0.12-1.01-0.36-1.42c-0.24-0.41-0.54-0.8-0.9-1.16c-0.36-0.37-0.74-0.73-1.15-1.1c-0.41-0.37-0.8-0.76-1.15-1.2
		c-0.36-0.43-0.66-0.92-0.9-1.48C186.46,230.53,186.34,229.88,186.34,229.14"/>
</g>
<rect x="197.26" y="225.38" class="st0" width="2.46" height="15.67"/>
<polygon class="st0" points="205.95,229.7 205.95,241.05 203.73,241.05 203.73,225.38 206.82,225.38 209.35,234.76 209.35,225.38 
	211.55,225.38 211.55,241.05 209.02,241.05 "/>
<g>
	<path class="st0" d="M222.7,235.2v2.08c0,1.27-0.31,2.24-0.93,2.92c-0.62,0.68-1.53,1.02-2.74,1.02c-1.21,0-2.13-0.34-2.74-1.02
		c-0.62-0.68-0.93-1.65-0.93-2.92v-8.15c0-1.27,0.31-2.24,0.93-2.92c0.62-0.68,1.53-1.02,2.74-1.02c1.21,0,2.12,0.34,2.74,1.02
		c0.62,0.68,0.93,1.65,0.93,2.92v1.52h-2.33v-1.68c0-0.57-0.12-0.97-0.35-1.2c-0.23-0.23-0.54-0.35-0.93-0.35
		c-0.39,0-0.7,0.12-0.93,0.35c-0.23,0.23-0.35,0.63-0.35,1.2v8.46c0,0.57,0.12,0.96,0.35,1.19c0.23,0.22,0.54,0.34,0.93,0.34
		c0.39,0,0.7-0.11,0.93-0.34c0.23-0.22,0.35-0.62,0.35-1.19v-2.24H222.7z"/>
</g>
<polygon class="st0" points="228.9,231.98 232.28,231.98 232.28,234.22 228.9,234.22 228.9,238.81 233.15,238.81 233.15,241.05 
	226.44,241.05 226.44,225.37 233.15,225.37 233.15,227.61 228.9,227.61 "/>
<g>
	<path class="st0" d="M244.15,227.35c0.48,0,0.87-0.05,1.18-0.16c0.31-0.1,0.56-0.25,0.75-0.43c0.19-0.18,0.35-0.39,0.47-0.63
		c0.12-0.24,0.22-0.49,0.31-0.76h1.66v15.67h-2.46v-11.96h-1.9V227.35z"/>
	<path class="st0" d="M257.22,233.35c0.39,0,0.7-0.12,0.93-0.35c0.23-0.23,0.35-0.63,0.35-1.2v-2.82c0-0.57-0.12-0.96-0.35-1.19
		c-0.23-0.22-0.54-0.33-0.93-0.33c-0.39,0-0.7,0.11-0.93,0.33c-0.23,0.22-0.35,0.62-0.35,1.19v2.82c0,0.57,0.12,0.97,0.35,1.2
		C256.53,233.23,256.84,233.35,257.22,233.35 M260.96,237.15c0,1.33-0.31,2.34-0.92,3.03c-0.61,0.7-1.56,1.04-2.84,1.04
		c-1.21,0-2.12-0.34-2.74-1.02c-0.62-0.68-0.93-1.65-0.93-2.92v-0.4h2.33v0.56c0,0.57,0.12,0.97,0.35,1.2
		c0.23,0.23,0.54,0.35,0.93,0.35c0.43,0,0.77-0.13,1.01-0.4c0.24-0.27,0.36-0.78,0.36-1.52v-2.87c-0.43,0.93-1.19,1.39-2.28,1.39
		c-0.91,0-1.59-0.3-2.05-0.92c-0.46-0.61-0.68-1.5-0.68-2.66v-2.87c0-1.27,0.32-2.24,0.96-2.92c0.64-0.68,1.57-1.02,2.78-1.02
		c1.21,0,2.13,0.34,2.78,1.02c0.64,0.68,0.96,1.65,0.96,2.92V237.15z"/>
	<path class="st0" d="M269.59,229.23c0-0.7-0.12-1.18-0.35-1.42c-0.23-0.25-0.54-0.37-0.93-0.37c-0.39,0-0.7,0.12-0.93,0.35
		c-0.23,0.23-0.35,0.63-0.35,1.2v1.01h-2.33v-0.85c0-1.27,0.31-2.24,0.93-2.92c0.62-0.68,1.53-1.02,2.74-1.02
		c1.21,0,2.12,0.34,2.74,1.02c0.62,0.68,0.93,1.65,0.93,2.92v0.4c0,1.67-0.58,2.75-1.72,3.22c0.63,0.27,1.07,0.68,1.33,1.24
		c0.26,0.56,0.39,1.24,0.39,2.05v1.23c0,1.27-0.31,2.24-0.93,2.92c-0.62,0.68-1.53,1.02-2.74,1.02c-1.21,0-2.12-0.34-2.74-1.02
		c-0.62-0.68-0.93-1.65-0.93-2.92v-1.3h2.33v1.46c0,0.57,0.12,0.97,0.35,1.2c0.23,0.23,0.54,0.35,0.93,0.35
		c0.39,0,0.7-0.12,0.93-0.36c0.23-0.24,0.35-0.71,0.35-1.41v-1.23c0-0.73-0.13-1.25-0.38-1.55c-0.25-0.3-0.66-0.45-1.23-0.45h-0.83
		v-2.24h0.96c0.46,0,0.82-0.12,1.09-0.36c0.26-0.24,0.39-0.67,0.39-1.3V229.23z"/>
</g>
<path class="st0" d="M280.06,235.97v-5.8l-2.44,5.8H280.06z M275.36,235.97l4.48-10.59h2.69v10.59h1.16v2.24h-1.16v2.84h-2.46v-2.84
	h-4.7V235.97z"/>
<polygon class="st0" points="131.31,226.95 132.95,231.93 138.2,231.91 133.97,235.01 135.62,239.99 131.36,236.93 127.12,240.03 
	128.72,235.04 124.46,231.98 129.71,231.95 "/>
<polygon class="st0" points="149.69,226.95 151.33,231.93 156.58,231.91 152.35,235.01 153.99,239.99 149.73,236.93 145.5,240.03 
	147.1,235.04 142.84,231.98 148.09,231.95 "/>
<polygon class="st0" points="168.07,226.95 169.71,231.93 174.96,231.91 170.73,235.01 172.37,239.99 168.12,236.93 163.88,240.03 
	165.48,235.04 161.22,231.98 166.47,231.95 "/>
<polygon class="st0" points="299.42,226.95 301.07,231.93 306.31,231.91 302.08,235.01 303.73,239.99 299.47,236.93 295.23,240.03 
	296.83,235.04 292.58,231.98 297.82,231.95 "/>
<polygon class="st0" points="317.8,226.95 319.45,231.93 324.69,231.91 320.46,235.01 322.11,239.99 317.85,236.93 313.61,240.03 
	315.22,235.04 310.95,231.98 316.2,231.95 "/>
<polygon class="st0" points="336.18,226.95 337.83,231.93 343.07,231.91 338.84,235.01 340.49,239.99 336.23,236.93 331.99,240.03 
	333.59,235.04 329.34,231.98 334.58,231.95 "/>
</svg>
